<svg width="128" height="128" viewBox="0 0 128 128" fill="none" xmlns="http://www.w3.org/2000/svg">
<g clip-path="url(#clip0_26_5)">
<path fill-rule="evenodd" clip-rule="evenodd" d="M47.2758 118.564C46.3081 118.265 45.351 117.942 44.4058 117.594L45.9503 103C48.2023 101.323 50.6936 99.9502 53.3631 98.9427C55.3707 98.1844 57.4791 97.6325 59.6624 97.3134C61.1115 97.101 62.5938 96.991 64.1014 96.991C65.6091 96.991 67.0911 97.101 68.5404 97.3134C70.7238 97.6325 72.8322 98.1844 74.8397 98.9427C77.5093 99.9502 80.0006 101.323 82.2526 103L83.7971 117.594C82.8518 117.942 81.8948 118.265 80.9268 118.564C76.9642 119.787 72.818 120.589 68.5404 120.918C67.0755 121.032 65.5952 121.089 64.1014 121.089C62.6077 121.089 61.1274 121.032 59.6624 120.918C55.3846 120.589 51.2384 119.787 47.2758 118.564ZM80.2675 84.244H47.9351L51.4183 51.3326H76.7843L80.2675 84.244Z" stroke="#16161E" stroke-width="0.712523" stroke-miterlimit="1.5" stroke-linecap="round" stroke-linejoin="round"/>
<path d="M74.8386 112.476L80.9247 118.563" stroke="#16161E" stroke-width="0.894255" stroke-miterlimit="1.5" stroke-linecap="round" stroke-linejoin="round"/>
<path d="M53.3647 112.476L47.2786 118.563" stroke="#16161E" stroke-width="0.894255" stroke-miterlimit="1.5" stroke-linecap="round" stroke-linejoin="round"/>
<path d="M74.8401 103.065L83.1381 111.363" stroke="#16161E" stroke-width="0.89395" stroke-miterlimit="1.5" stroke-linecap="round" stroke-linejoin="round"/>
<path d="M53.363 103.065L45.065 111.363" stroke="#16161E" stroke-width="0.89395" stroke-miterlimit="1.5" stroke-linecap="round" stroke-linejoin="round"/>
<path d="M74.8411 107.771L83.6961 116.626" stroke="#16161E" stroke-width="0.894336" stroke-miterlimit="1.5" stroke-linecap="round" stroke-linejoin="round"/>
<path d="M53.3611 107.771L44.506 116.626" stroke="#16161E" stroke-width="0.894336" stroke-miterlimit="1.5" stroke-linecap="round" stroke-linejoin="round"/>
<path d="M66.2476 55.16L78.483 67.3952" stroke="#16161E" stroke-width="0.894011" stroke-miterlimit="1.5" stroke-linecap="round" stroke-linejoin="round"/>
<path d="M61.9534 55.16L49.7179 67.3952" stroke="#16161E" stroke-width="0.894011" stroke-miterlimit="1.5" stroke-linecap="round" stroke-linejoin="round"/>
<path d="M59.6631 84.2441V72.227C59.6631 71.0499 60.1308 69.9209 60.962 69.0882C61.7953 68.2558 62.9242 67.7883 64.1019 67.7883C65.2796 67.7883 66.4084 68.2558 67.2397 69.0882C68.073 69.9209 68.5407 71.0499 68.5407 72.227V84.2441" stroke="#16161E" stroke-width="0.893736" stroke-miterlimit="1.5" stroke-linecap="round" stroke-linejoin="round"/>
<path d="M66.2498 51.3325V59.4006C66.2498 60.7461 66.7845 62.0364 67.7359 62.9878L71.868 67.1208C73.7708 69.0236 74.8404 71.6044 74.8404 74.2954V84.2442M74.8404 98.9425V120.031" stroke="#16161E" stroke-width="0.895571" stroke-miterlimit="1.5" stroke-linecap="round" stroke-linejoin="round"/>
<path d="M61.9539 51.3325V59.3606C61.9539 60.7317 61.4105 62.0467 60.4398 63.0162L56.3356 67.1208C54.4328 69.0236 53.3633 71.6044 53.3633 74.2954V84.2442M53.3633 98.9425V120.031" stroke="#16161E" stroke-width="0.895571" stroke-miterlimit="1.5" stroke-linecap="round" stroke-linejoin="round"/>
<path fill-rule="evenodd" clip-rule="evenodd" d="M44.4056 117.594C22.5984 109.565 7.02783 88.5942 7.02783 64.0153C7.02783 32.5156 32.6016 6.94189 64.1012 6.94189C95.6008 6.94189 121.174 32.5156 121.174 64.0153C121.174 88.5942 105.603 109.565 83.7968 117.594C82.8516 117.942 81.8946 118.266 80.9267 118.564C76.9641 119.787 72.8179 120.588 68.5403 120.918C67.0752 121.031 65.5949 121.089 64.1012 121.089C62.6075 121.089 61.1271 121.031 59.6621 120.918C55.3845 120.588 51.2383 119.787 47.2757 118.564C46.3078 118.266 45.3507 117.942 44.4056 117.594Z" stroke="#16161E" stroke-width="0.89439" stroke-miterlimit="1.5" stroke-linecap="round" stroke-linejoin="round"/>
<path d="M24.5842 84.2441C21.4692 78.1764 19.7109 71.2995 19.7109 64.0152C19.7109 39.5155 39.6016 19.6248 64.1013 19.6248C88.601 19.6248 108.491 39.5155 108.491 64.0152C108.491 71.2995 106.734 78.1764 103.618 84.2441" stroke="#16161E" stroke-width="0.894927" stroke-miterlimit="1.5" stroke-linecap="round" stroke-linejoin="round"/>
<path fill-rule="evenodd" clip-rule="evenodd" d="M10.9153 58.2711C11.3 58.3156 11.7659 58.3184 12.3134 58.2794C12.3687 58.4334 12.3903 58.6104 12.3785 58.8104C12.0345 58.8043 11.7754 58.8802 11.6009 59.0382C11.4266 59.1963 11.3286 59.454 11.3073 59.8113L11.279 60.283L14.9556 60.5031C15.1772 60.5165 15.3409 60.5064 15.4469 60.4734C15.5528 60.4403 15.6304 60.3732 15.6794 60.2722C15.7285 60.1711 15.7667 60.0138 15.7937 59.8004C15.8817 59.7697 16.0328 59.7608 16.2472 59.7737C16.2013 60.3016 16.1682 60.7336 16.1481 61.0694C16.1232 61.4839 16.1039 61.9274 16.09 62.3999C15.8755 62.387 15.7265 62.3602 15.6429 62.3194C15.6415 62.1041 15.6225 61.9398 15.5863 61.8265C15.5501 61.7131 15.4797 61.6318 15.375 61.5825C15.2704 61.5332 15.111 61.5021 14.8966 61.4893L11.2199 61.2691L11.1937 61.7086C11.1765 61.9945 11.2008 62.2164 11.2667 62.3745C11.3325 62.5327 11.4312 62.6515 11.5627 62.7312C11.6942 62.8107 11.8834 62.883 12.1306 62.9481C12.1169 63.1767 12.0746 63.3427 12.0039 63.446C11.5244 63.3098 11.0632 63.2284 10.6201 63.2018C10.6566 62.831 10.7128 62.0132 10.7886 60.7484C10.8656 59.4622 10.9079 58.6364 10.9153 58.2711Z" fill="#16161E"/>
<path fill-rule="evenodd" clip-rule="evenodd" d="M16.3667 51.5558C16.6681 51.6188 16.8787 51.6172 16.9986 51.5509C17.1186 51.4846 17.2111 51.3303 17.2766 51.0879C17.368 51.0706 17.5188 51.0838 17.729 51.1279C17.6152 51.6013 17.5276 51.9852 17.466 52.2796C17.3926 52.63 17.3174 53.0238 17.2405 53.4611C17.0304 53.4171 16.8868 53.3688 16.8101 53.3161C16.8474 53.068 16.8244 52.8895 16.7412 52.7807C16.6579 52.6718 16.4657 52.5859 16.1643 52.5227L14.8821 52.2542C14.6005 53.5996 14.428 54.5106 14.3647 54.9875L15.5945 55.2449C15.8957 55.308 16.1064 55.3064 16.2263 55.2401C16.3462 55.1737 16.4396 55.0159 16.5064 54.7666C16.6034 54.7576 16.7535 54.7745 16.9567 54.8171C16.8429 55.2905 16.7552 55.6745 16.6936 55.9688C16.6203 56.3191 16.5452 56.7129 16.4683 57.1504C16.258 57.1063 16.1146 57.058 16.0378 57.0054C16.0605 56.8272 16.0599 56.69 16.0362 56.5936C16.0125 56.4972 15.9517 56.4205 15.854 56.3635C15.7562 56.3064 15.6022 56.256 15.3921 56.2118L12.5227 55.6112C12.3194 55.5687 12.1617 55.5539 12.0493 55.5669C11.9368 55.58 11.8503 55.626 11.79 55.7047C11.7296 55.7835 11.6741 55.909 11.6234 56.0812C11.518 56.0957 11.3671 56.0825 11.1709 56.0414C11.2789 55.5959 11.368 55.205 11.4385 54.8686C11.4971 54.5883 11.5707 54.2015 11.6594 53.7081C11.8626 53.7506 12.0069 53.7954 12.0921 53.8426C12.0533 54.0977 12.0738 54.2793 12.1536 54.3875C12.2332 54.4956 12.4239 54.5811 12.7251 54.6443L13.8497 54.8797L14.4196 52.1576L13.2949 51.9221C13.0918 51.8795 12.9335 51.8665 12.8204 51.8831C12.7072 51.8996 12.6205 51.9473 12.5601 52.0261C12.4998 52.1048 12.4442 52.2303 12.3935 52.4025C12.2825 52.4087 12.1325 52.3918 11.9433 52.3522C12.0511 51.9067 12.1395 51.5193 12.2086 51.1899C12.2687 50.9027 12.3431 50.5124 12.4317 50.0189C12.614 50.057 12.7573 50.1054 12.8622 50.1639C12.8234 50.419 12.8443 50.5989 12.9248 50.7036C13.0052 50.8082 13.1961 50.892 13.4974 50.9552L16.3667 51.5558Z" fill="#16161E"/>
<path fill-rule="evenodd" clip-rule="evenodd" d="M18.3325 44.8649C18.4336 44.6963 18.5625 44.5762 18.7191 44.5049C18.9893 44.7432 19.3611 44.9853 19.8349 45.231L19.0997 47.1688C18.7392 48.1346 18.4552 48.915 18.2483 49.5102C18.0404 49.4325 17.8957 49.3593 17.8144 49.2907C17.8636 49.1181 17.8837 48.9823 17.8748 48.8835C17.8659 48.7846 17.8139 48.6984 17.7193 48.6248C17.6244 48.5511 17.4697 48.4744 17.2551 48.3941L14.6094 47.4062C14.415 47.3335 14.2606 47.2969 14.1461 47.2962C14.0318 47.2954 13.9389 47.3295 13.8672 47.3983C13.7958 47.4672 13.7233 47.5795 13.6496 47.7355C13.5366 47.7315 13.3795 47.6918 13.1782 47.6167C13.372 47.1389 13.5753 46.6149 13.7882 46.0449C14.249 44.8108 14.5504 43.9835 14.6922 43.5627C15.3501 43.7243 15.7897 43.8159 16.0111 43.8373C16.0421 43.9789 16.0227 44.1436 15.9526 44.3314C15.661 44.253 15.3964 44.286 15.159 44.4305C14.9217 44.5749 14.7067 44.9054 14.5137 45.4218L14.2208 46.2063L16.0716 46.8976L16.2596 46.3947C16.3922 46.0392 16.4441 45.7778 16.415 45.6102C16.3858 45.4427 16.2652 45.3155 16.053 45.2287C16.0612 45.0635 16.0954 44.9005 16.1554 44.7397C16.3182 44.8156 16.5974 44.9274 16.993 45.0753C17.4222 45.2356 17.7164 45.3378 17.8757 45.382C17.8081 45.563 17.7329 45.7031 17.6501 45.8021C17.4212 45.7395 17.2408 45.762 17.109 45.8694C16.9772 45.9769 16.845 46.2084 16.7122 46.5637L16.5244 47.0667L17.5806 47.4612C17.7953 47.5413 17.9661 47.5802 18.093 47.5779C18.2199 47.5758 18.3258 47.5274 18.4107 47.433C18.4956 47.3387 18.5794 47.1808 18.6621 46.9595L18.6846 46.8991C18.8298 46.5102 18.9085 46.1975 18.9202 45.9613C18.9321 45.7249 18.892 45.5304 18.8 45.3775C18.7081 45.2248 18.5522 45.0539 18.3325 44.8649Z" fill="#16161E"/>
<path fill-rule="evenodd" clip-rule="evenodd" d="M22.9079 39.4404C22.7049 39.7771 22.4876 40.0621 22.2559 40.2942C22.0241 40.5263 21.7449 40.7612 21.418 40.999C21.0476 40.6853 20.7065 40.446 20.395 40.2842C20.4332 40.1237 20.5114 39.9447 20.6295 39.7484C21.0172 39.9647 21.3662 40.0091 21.6763 39.8831C21.9864 39.757 22.267 39.4849 22.518 39.068C22.732 38.7113 22.8458 38.3976 22.8589 38.1255C22.8723 37.8533 22.7867 37.6628 22.6028 37.5525C22.4739 37.4737 22.3315 37.4579 22.1757 37.5023C22.0197 37.5453 21.8661 37.6198 21.7148 37.7258C21.5637 37.8304 21.356 37.9922 21.0919 38.2085C20.7342 38.5122 20.4295 38.7443 20.1775 38.9061C19.9257 39.068 19.6492 39.1726 19.3484 39.2213C19.0476 39.27 18.7468 39.2041 18.4463 39.0236C18.0353 38.7758 17.8157 38.4334 17.7873 37.9937C17.7591 37.5553 17.9074 37.0654 18.2321 36.5268C18.4056 36.2375 18.6057 35.9682 18.8326 35.7161C19.0593 35.464 19.2638 35.2835 19.4455 35.176C19.5094 35.2233 19.6118 35.2878 19.7529 35.3737C20.0288 35.5399 20.2577 35.6516 20.4394 35.7118C20.4293 35.8808 20.3616 36.0699 20.2361 36.2776C19.8347 36.153 19.507 36.1458 19.2527 36.2561C18.9985 36.3664 18.7863 36.5627 18.6166 36.8448C18.4541 37.1156 18.3683 37.362 18.3587 37.5854C18.3493 37.8103 18.4335 37.975 18.6114 38.0825C18.8138 38.2042 19.0354 38.2042 19.2762 38.081C19.517 37.9593 19.8364 37.7344 20.2347 37.4049C20.5714 37.1227 20.8632 36.9021 21.1102 36.7417C21.3573 36.5813 21.6223 36.4767 21.9054 36.4309C22.1884 36.3836 22.4709 36.4452 22.7531 36.6142C23.158 36.8577 23.3865 37.2216 23.4387 37.7043C23.4908 38.1871 23.3139 38.7658 22.9079 39.4404Z" fill="#16161E"/>
<path fill-rule="evenodd" clip-rule="evenodd" d="M25.1104 35.9681C24.9336 35.8349 24.8161 35.7232 24.758 35.6344C24.8548 35.4825 24.9131 35.3579 24.933 35.2605C24.9529 35.1631 24.9309 35.0685 24.867 34.9754C24.8031 34.8809 24.6856 34.7706 24.5146 34.6402L22.2311 32.907C22.0657 32.7809 21.9294 32.6993 21.8223 32.6635C21.7151 32.6276 21.6173 32.6319 21.5291 32.6763C21.4407 32.7222 21.3367 32.811 21.2171 32.9456C21.1099 32.9098 20.9708 32.8253 20.7998 32.6964C21.0882 32.3397 21.3364 32.0246 21.5441 31.751C21.7173 31.5232 21.9496 31.2052 22.2413 30.797C22.4181 30.9316 22.5377 31.0405 22.6001 31.1236C22.4557 31.3384 22.3964 31.5103 22.4221 31.6421C22.4478 31.7739 22.5832 31.9329 22.8285 32.1191L25.1119 33.8524C25.3572 34.0386 25.5481 34.1289 25.6849 34.1188C25.8217 34.1117 25.9737 34.0085 26.141 33.8123C26.2439 33.8538 26.3808 33.9398 26.5518 34.0701C26.246 34.4497 26.0023 34.7577 25.8204 34.9969C25.604 35.2834 25.3673 35.6057 25.1104 35.9681Z" fill="#16161E"/>
<path fill-rule="evenodd" clip-rule="evenodd" d="M29.6861 30.6165C29.2587 31.0591 28.7959 31.3685 28.2978 31.5447C27.7997 31.7195 27.3067 31.7538 26.8188 31.6464C26.3308 31.539 25.8884 31.294 25.4918 30.9115C25.0796 30.5133 24.8348 30.0635 24.7576 29.5607C24.6803 29.0579 24.7409 28.5552 24.9394 28.0495C25.1379 27.5453 25.436 27.0869 25.8338 26.6743C26.1369 26.3606 26.4509 26.0842 26.7758 25.8449C27.1007 25.6072 27.4012 25.4324 27.6777 25.3207C27.8288 25.5556 28.1027 25.865 28.4994 26.2475C28.4511 26.3793 28.3449 26.5311 28.1809 26.7016C27.8414 26.4036 27.5102 26.2876 27.1874 26.3549C26.8646 26.4208 26.5416 26.6213 26.2184 26.9565C25.8755 27.3118 25.6529 27.6771 25.5508 28.0509C25.4486 28.4248 25.4524 28.7786 25.5622 29.1138C25.672 29.4476 25.8582 29.7427 26.1209 29.9962C26.6465 30.5033 27.207 30.7783 27.8026 30.8199C28.3982 30.8628 28.9421 30.6293 29.4343 30.1194C29.5883 29.959 29.7051 29.8329 29.7844 29.7412C29.8638 29.6481 29.9352 29.5435 29.999 29.4247C30.058 29.323 30.0752 29.2255 30.0507 29.1324C30.0263 29.0393 29.9446 28.9247 29.8055 28.7915L29.5658 28.5594C29.4164 28.4162 29.2971 28.326 29.2078 28.2887C29.1186 28.2529 29.0252 28.2615 28.9274 28.3174C28.8297 28.3718 28.6937 28.4835 28.5195 28.654C28.3969 28.5953 28.2636 28.4964 28.1193 28.3575C28.2439 28.25 28.52 27.9736 28.9476 27.5309C29.37 27.0926 29.6258 26.8176 29.7149 26.7044C29.8592 26.8434 29.9653 26.9709 30.0332 27.0855C29.9438 27.1886 29.891 27.2717 29.8744 27.3347C29.8578 27.3992 29.8716 27.4665 29.9159 27.5395C29.9603 27.6126 30.0468 27.71 30.1756 27.8346L30.3689 28.0208C30.4873 28.1354 30.5876 28.22 30.6695 28.2744C30.7515 28.3288 30.8486 28.3747 30.9606 28.4133C30.8957 28.7485 30.7553 29.1081 30.5395 29.492C30.3234 29.8759 30.0391 30.2498 29.6861 30.6165Z" fill="#16161E"/>
<path fill-rule="evenodd" clip-rule="evenodd" d="M33.8916 19.9203C34.1095 19.757 34.346 19.5722 34.6013 19.3631C34.7299 19.535 34.8148 19.6725 34.8561 19.7756C34.7444 19.8773 34.6762 19.9776 34.6517 20.0764C34.6272 20.1753 34.6481 20.2956 34.7144 20.4374C34.7808 20.5807 34.9039 20.7726 35.084 21.0133L37.3534 24.0486C37.3046 24.1389 37.1999 24.2449 37.0393 24.3638L31.3993 23.2579L32.9422 25.3221C33.1265 25.5685 33.2815 25.7432 33.4075 25.8464C33.5332 25.9481 33.6527 25.9982 33.7659 25.9939C33.8789 25.9896 34.0115 25.9395 34.1634 25.8435C34.2606 25.9137 34.3714 26.0326 34.4957 26.1988C34.1775 26.4194 33.918 26.6042 33.7173 26.7546C33.4478 26.9551 33.1912 27.1557 32.9475 27.3562C32.8232 27.19 32.7411 27.0496 32.7013 26.9365C32.836 26.8176 32.9198 26.7059 32.9531 26.6013C32.9862 26.4967 32.9713 26.3678 32.9085 26.2188C32.8458 26.0698 32.7223 25.8707 32.538 25.6243L30.6607 23.1133L30.6457 23.1104C30.5755 23.1004 30.5036 23.1118 30.4298 23.1448C30.356 23.1777 30.226 23.2551 30.0396 23.3754C29.9337 23.2937 29.823 23.1763 29.7073 23.0216C29.9223 22.8783 30.1273 22.7337 30.3222 22.5875C30.5 22.4558 30.6763 22.3154 30.8512 22.1664L36.1134 23.2336L34.6798 21.3155C34.4997 21.0749 34.3479 20.9044 34.2241 20.8041C34.1005 20.7053 33.982 20.6566 33.869 20.6609C33.7558 20.6652 33.6205 20.7168 33.4627 20.817C33.3413 20.7024 33.2334 20.5821 33.1392 20.456C33.4344 20.2526 33.6852 20.075 33.8916 19.9203Z" fill="#16161E"/>
<path fill-rule="evenodd" clip-rule="evenodd" d="M43.8873 19.823C43.9694 19.9003 44.061 20.035 44.162 20.2241C43.9024 20.3458 43.5736 20.5134 43.1757 20.7254C42.7587 20.9474 42.4272 21.1322 42.1811 21.2798C42.0769 21.0835 42.02 20.9317 42.0108 20.8228C42.146 20.7254 42.2344 20.6438 42.276 20.5779C42.3174 20.5105 42.3197 20.4432 42.2827 20.373C42.2523 20.3172 42.1685 20.2355 42.0313 20.1295L41.6246 19.823C40.7149 20.3086 40.0062 20.7068 39.4986 21.0176L39.5257 21.3185C39.5398 21.4975 39.5689 21.6293 39.6126 21.7109C39.7069 21.8871 39.8904 21.9201 40.1628 21.8069C40.2614 21.9 40.356 22.0332 40.4469 22.2037C40.2001 22.3183 39.9345 22.4515 39.6501 22.6034C39.4038 22.7352 39.1829 22.8598 38.9873 22.9801C38.9065 22.8297 38.8498 22.6764 38.817 22.5246C38.9426 22.4243 39.0189 22.3097 39.0459 22.1765C39.0729 22.0447 39.0754 21.8069 39.0538 21.4603L38.76 16.9824C38.8666 16.8922 38.9863 16.8119 39.119 16.7417L42.7915 19.4333C43.0853 19.6496 43.3082 19.7829 43.46 19.8316C43.6117 19.8803 43.7543 19.8774 43.8873 19.823ZM41.2281 19.5365L40.0233 18.6455C39.6806 18.3977 39.4255 18.1928 39.2579 18.031C39.2916 18.2157 39.3134 18.4048 39.3231 18.5982C39.333 18.7916 39.3384 18.9119 39.3397 18.9606L39.4559 20.4805L41.2281 19.5365Z" fill="#16161E"/>
<path fill-rule="evenodd" clip-rule="evenodd" d="M47.7194 18.3274C48.0354 18.2113 48.2743 18.0882 48.4359 17.9564C48.5975 17.826 48.7085 17.6713 48.7692 17.4922C48.8298 17.3146 48.8651 17.0826 48.8751 16.7961C49.069 16.7631 49.244 16.7832 49.3999 16.8562C49.3944 17.2158 49.4521 17.657 49.5733 18.1755L47.7843 18.8173C46.8159 19.1711 46.0383 19.4633 45.4515 19.6925C45.3753 19.4848 45.3369 19.3272 45.3362 19.2198C45.4926 19.1482 45.6072 19.0751 45.6798 19.0035C45.7526 18.9304 45.7877 18.8345 45.7854 18.7127C45.7831 18.5924 45.7427 18.4233 45.6641 18.2085L44.6955 15.5556C44.6243 15.3608 44.5518 15.2204 44.478 15.133C44.4041 15.0456 44.3179 14.9969 44.219 14.9869C44.1203 14.9768 43.9844 14.9969 43.8114 15.0442C43.7452 14.9468 43.6764 14.8007 43.6052 14.6058C44.0944 14.4411 44.47 14.3122 44.7323 14.2162C45.008 14.1159 45.3787 13.9727 45.8446 13.7879C45.9182 13.9899 45.9566 14.1475 45.9599 14.2592C45.7294 14.3595 45.5899 14.4726 45.5415 14.6015C45.4931 14.729 45.5216 14.9382 45.6271 15.2275L46.5847 17.8503C46.6634 18.0652 46.743 18.2214 46.824 18.3173C46.9047 18.4133 47.0087 18.4634 47.1357 18.4663C47.2626 18.4692 47.4369 18.4305 47.6588 18.3489L47.7194 18.3274Z" fill="#16161E"/>
<path fill-rule="evenodd" clip-rule="evenodd" d="M53.6241 17.1271C53.5813 16.9093 53.5678 16.7475 53.5836 16.6415C53.7565 16.5928 53.8827 16.5398 53.9622 16.4796C54.0417 16.4209 54.0885 16.3349 54.103 16.2232C54.1173 16.11 54.1039 15.9482 54.0625 15.7376L53.5091 12.9243C53.469 12.7208 53.421 12.5704 53.3652 12.4716C53.3093 12.3727 53.2334 12.3111 53.1372 12.2868C53.0411 12.261 52.9039 12.2596 52.7256 12.2796C52.6697 12.1822 52.6211 12.0275 52.5796 11.8169C53.032 11.7425 53.4267 11.6708 53.7638 11.6049C54.0448 11.5505 54.4297 11.4674 54.9186 11.3557C54.9615 11.5734 54.9785 11.7353 54.9698 11.8384C54.7197 11.9029 54.5604 11.9917 54.4919 12.1077C54.4236 12.2238 54.419 12.4315 54.4785 12.7337L55.0318 15.5471C55.0911 15.8493 55.1748 16.0427 55.2826 16.1272C55.3905 16.2117 55.5723 16.2361 55.8278 16.2003C55.8767 16.3006 55.9218 16.4553 55.9632 16.6658C55.4829 16.746 55.0951 16.8148 54.8002 16.8735C54.4489 16.9423 54.0569 17.0268 53.6241 17.1271Z" fill="#16161E"/>
<path fill-rule="evenodd" clip-rule="evenodd" d="M62.5057 10.5836C62.777 10.565 63.0765 10.5363 63.404 10.4991C63.4189 10.7139 63.4157 10.8758 63.3947 10.9847C63.2457 11.009 63.1341 11.0563 63.0601 11.1265C62.986 11.1967 62.9382 11.3084 62.9167 11.4646C62.8952 11.6207 62.8949 11.8485 62.9157 12.1478L63.1782 15.9295C63.0884 15.9782 62.9434 16.0112 62.7435 16.0241L58.6024 12.039L58.781 14.6102C58.8022 14.9168 58.838 15.1474 58.8882 15.3021C58.9384 15.4568 59.0122 15.5628 59.1095 15.6201C59.2067 15.6774 59.3451 15.7075 59.5247 15.7104C59.5683 15.8221 59.5974 15.9811 59.6117 16.1888C59.2251 16.2003 58.9068 16.216 58.6568 16.2332C58.3212 16.2561 57.9967 16.2862 57.6835 16.322C57.6691 16.1143 57.6759 15.9524 57.7037 15.8364C57.8811 15.8092 58.0124 15.7605 58.0972 15.6903C58.182 15.6201 58.2385 15.5055 58.2669 15.3451C58.2953 15.1846 58.2988 14.9512 58.2775 14.6446L58.0603 11.5161L58.0489 11.5061C57.9953 11.4603 57.9287 11.4302 57.8489 11.4187C57.7691 11.4058 57.618 11.4001 57.3957 11.4015C57.351 11.2755 57.3221 11.115 57.3086 10.9231C57.5667 10.9188 57.8173 10.9088 58.0601 10.893C58.2814 10.8772 58.5058 10.8543 58.7335 10.8242L62.578 14.5716L62.4122 12.1836C62.3914 11.8828 62.356 11.6579 62.306 11.5075C62.2562 11.3557 62.1825 11.2511 62.0853 11.1938C61.9879 11.1365 61.8459 11.1064 61.6593 11.105C61.6193 10.9431 61.5938 10.7827 61.5829 10.6266C61.941 10.6151 62.2486 10.6022 62.5057 10.5836Z" fill="#16161E"/>
<path fill-rule="evenodd" clip-rule="evenodd" d="M73.3726 11.3242C73.3026 11.7053 73.2689 12.1708 73.2715 12.7194C73.1142 12.7639 72.9362 12.7739 72.7373 12.7495C72.7664 12.4057 72.7078 12.1422 72.5616 11.9588C72.4155 11.774 72.1648 11.658 71.8097 11.6136L71.341 11.5549L70.8774 15.2076C70.8495 15.4282 70.8485 15.593 70.8746 15.7004C70.9005 15.8078 70.9622 15.8895 71.0598 15.9453C71.1575 16.0012 71.3119 16.0499 71.5231 16.0915C71.5478 16.1803 71.5467 16.3321 71.5196 16.5455C70.9959 16.4639 70.567 16.4023 70.2333 16.3608C69.8214 16.3078 69.3802 16.259 68.9097 16.2146C68.9366 16.0012 68.9734 15.8537 69.0197 15.7734C69.2346 15.7863 69.3997 15.7777 69.5152 15.7491C69.6306 15.7204 69.7164 15.656 69.7726 15.5557C69.8287 15.454 69.8703 15.2964 69.8974 15.0844L70.3609 11.4302L69.9241 11.3744C69.6401 11.3386 69.4169 11.3486 69.2549 11.403C69.0927 11.4589 68.9675 11.5491 68.8794 11.6752C68.7912 11.8012 68.7066 11.9846 68.6253 12.2267C68.398 12.198 68.2353 12.145 68.1367 12.0677C68.3046 11.5978 68.4165 11.1437 68.4723 10.7026C68.8398 10.7641 69.6521 10.8744 70.9091 11.0334C72.1874 11.1967 73.0087 11.2927 73.3726 11.3242Z" fill="#16161E"/>
<path fill-rule="evenodd" clip-rule="evenodd" d="M79.727 17.2202C79.6438 17.5167 79.6312 17.7272 79.6892 17.8504C79.7474 17.9751 79.895 18.0782 80.1324 18.1599C80.1436 18.2515 80.1202 18.4019 80.0621 18.6082C79.5972 18.4621 79.2202 18.3489 78.9307 18.2687C78.5861 18.1713 78.1982 18.0696 77.767 17.9636C77.8251 17.7573 77.883 17.617 77.9407 17.5439C78.1858 17.5983 78.3655 17.5869 78.4796 17.5109C78.5939 17.435 78.6926 17.2488 78.7759 16.9523L79.1303 15.6917C77.807 15.3193 76.9095 15.0858 76.4381 14.9913L76.0983 16.2003C76.0151 16.4968 76.0025 16.7073 76.0605 16.832C76.1187 16.9552 76.2698 17.0597 76.514 17.1428C76.5164 17.2402 76.4895 17.3892 76.4334 17.5883C75.9687 17.4436 75.5915 17.3305 75.302 17.2488C74.9575 17.1514 74.5696 17.0497 74.1384 16.9437C74.1964 16.7374 74.2543 16.5971 74.312 16.524C74.4882 16.5584 74.6252 16.5684 74.723 16.5512C74.8207 16.534 74.9014 16.4781 74.9648 16.3836C75.0284 16.2905 75.0891 16.1401 75.1472 15.9338L75.94 13.1119C75.9962 12.9113 76.0215 12.7552 76.0161 12.642C76.0108 12.5289 75.9708 12.4401 75.8962 12.3742C75.8217 12.3083 75.7002 12.2452 75.5318 12.1822C75.5245 12.0762 75.5478 11.9272 75.6021 11.7339C76.0393 11.8714 76.4233 11.986 76.7541 12.0791C77.0298 12.1564 77.4109 12.2567 77.8972 12.3785C77.841 12.5776 77.7866 12.7194 77.7338 12.801C77.4818 12.7452 77.2991 12.7538 77.186 12.8254C77.0727 12.8984 76.9744 13.0818 76.8912 13.3783L76.5805 14.4842L79.258 15.2362L79.5687 14.1304C79.6249 13.9312 79.6485 13.7737 79.6396 13.6591C79.6308 13.5459 79.5891 13.4557 79.5146 13.3912C79.4401 13.3253 79.3185 13.2609 79.1502 13.1993C79.1516 13.0875 79.1785 12.9385 79.2308 12.7538C79.668 12.8913 80.0486 13.0059 80.3725 13.0961C80.6551 13.1749 81.0394 13.2766 81.5258 13.3984C81.4755 13.5774 81.4176 13.7164 81.3521 13.8181C81.1002 13.7608 80.9193 13.7708 80.8094 13.8439C80.6997 13.9169 80.6031 14.1017 80.5199 14.3982L79.727 17.2202Z" fill="#16161E"/>
<path fill-rule="evenodd" clip-rule="evenodd" d="M86.256 19.6252C86.4173 19.7384 86.5284 19.8745 86.5892 20.0349C86.3332 20.2884 86.0668 20.6437 85.7899 21.1006L83.9057 20.2369C82.9663 19.8114 82.2067 19.4762 81.6267 19.2298C81.7181 19.0279 81.8007 18.8889 81.8747 18.8116C82.0435 18.8732 82.1778 18.9018 82.2769 18.899C82.3762 18.8975 82.4657 18.8517 82.5455 18.7615C82.6253 18.6712 82.7124 18.5222 82.8068 18.3145L83.9699 15.7404C84.0553 15.5513 84.1023 15.3995 84.1106 15.2863C84.119 15.1717 84.0912 15.0772 84.0274 15.0012C83.9635 14.9239 83.8562 14.8451 83.7056 14.7606C83.7172 14.6489 83.7672 14.4942 83.8556 14.2979C84.3194 14.5242 84.8287 14.762 85.3832 15.0127C86.5834 15.5542 87.3888 15.9108 87.7992 16.0813C87.5937 16.7259 87.4728 17.1585 87.4366 17.3777C87.2934 17.3992 87.1304 17.3691 86.9477 17.286C87.0454 17.001 87.0302 16.7345 86.902 16.4881C86.7738 16.2418 86.4585 16.0054 85.9562 15.7776L85.193 15.4324L84.3792 17.233L84.8685 17.455C85.2142 17.6112 85.4716 17.6799 85.6407 17.6627C85.8099 17.6441 85.9449 17.5324 86.0457 17.3276C86.2099 17.3462 86.3703 17.3906 86.5269 17.4622C86.4401 17.6183 86.3097 17.8905 86.1357 18.2744C85.947 18.6927 85.8252 18.9792 85.7705 19.1353C85.5943 19.0551 85.4597 18.9706 85.3666 18.8818C85.4442 18.6583 85.4339 18.4764 85.3356 18.3374C85.2372 18.1985 85.0152 18.0509 84.6694 17.8948L84.1802 17.6742L83.7158 18.7013C83.6214 18.9104 83.5711 19.078 83.565 19.2041C83.5587 19.3316 83.5998 19.4404 83.6883 19.5307C83.7767 19.6224 83.9285 19.7169 84.1438 19.8143L84.2026 19.8401C84.581 20.012 84.8876 20.1108 85.1226 20.138C85.3575 20.1667 85.5544 20.1395 85.7129 20.0578C85.8715 19.9762 86.0526 19.8315 86.256 19.6252Z" fill="#16161E"/>
<path fill-rule="evenodd" clip-rule="evenodd" d="M96.9445 21.8484C97.1655 22.0059 97.414 22.1764 97.6899 22.3569C97.5647 22.5302 97.4591 22.6534 97.3732 22.7236C97.2427 22.6477 97.1268 22.6133 97.0253 22.619C96.9237 22.6262 96.815 22.6821 96.6991 22.7881C96.5831 22.8941 96.4375 23.0703 96.2622 23.3138L94.0523 26.3936C93.9516 26.3749 93.8198 26.3062 93.657 26.1902L93.0104 20.4789L91.5079 22.5718C91.3284 22.8224 91.2088 23.023 91.1489 23.1748C91.089 23.3252 91.0781 23.4542 91.1162 23.5602C91.1542 23.6676 91.2418 23.7779 91.3789 23.8939C91.3411 24.0085 91.2618 24.1489 91.1407 24.3179C90.835 24.0816 90.5803 23.8896 90.3768 23.7435C90.1035 23.5473 89.8346 23.3625 89.5703 23.1906C89.6914 23.023 89.7998 22.9027 89.8958 22.8296C90.0495 22.9227 90.1814 22.9686 90.2917 22.9686C90.402 22.9686 90.519 22.9155 90.6428 22.811C90.7667 22.7064 90.9183 22.5288 91.0977 22.2781L92.9258 19.7312L92.9234 19.7154C92.9118 19.6452 92.8793 19.5808 92.8259 19.5206C92.7723 19.459 92.6595 19.3588 92.4875 19.2184C92.5336 19.0923 92.613 18.9505 92.7256 18.7944C92.9267 18.9562 93.1261 19.1081 93.3238 19.2499C93.5041 19.3788 93.6915 19.5049 93.886 19.6266L94.4561 24.9654L95.8522 23.0201C96.0274 22.7766 96.144 22.5789 96.2017 22.4314C96.2595 22.2838 96.2693 22.1564 96.2312 22.0504C96.1933 21.9429 96.1028 21.8298 95.9599 21.7094C96.0326 21.559 96.1149 21.4201 96.2067 21.2926C96.4892 21.5117 96.735 21.698 96.9445 21.8484Z" fill="#16161E"/>
<path fill-rule="evenodd" clip-rule="evenodd" d="M97.8119 29.9346C97.3742 29.5006 97.068 29.0365 96.8934 28.5423C96.7186 28.0466 96.6845 27.5596 96.7908 27.0797C96.8971 26.6013 97.1442 26.1658 97.532 25.7748C97.9147 25.388 98.3475 25.1359 98.8302 25.0198C99.3131 24.9024 99.8056 24.9296 100.307 25.0986C100.81 25.2691 101.282 25.5728 101.725 26.0111C102.162 26.4437 102.468 26.9078 102.643 27.4035C102.818 27.8977 102.851 28.3861 102.742 28.8674C102.633 29.3487 102.387 29.7828 102.005 30.1695C101.617 30.562 101.183 30.8141 100.702 30.9287C100.222 31.0433 99.7309 31.0147 99.2288 30.8457C98.7268 30.6752 98.2545 30.3715 97.8119 29.9346ZM98.2661 29.6882C98.6782 30.0965 99.1412 30.2827 99.6547 30.2469C100.168 30.2111 100.652 29.9647 101.105 29.5063C101.432 29.1754 101.659 28.8144 101.787 28.4205C101.914 28.028 101.932 27.6412 101.841 27.2588C101.751 26.8777 101.558 26.5411 101.263 26.2489C100.851 25.8406 100.388 25.6573 99.874 25.6974C99.3605 25.7375 98.8796 25.9853 98.4314 26.438C98.0941 26.7789 97.8619 27.1456 97.7348 27.5381C97.6077 27.932 97.5907 28.3145 97.6838 28.6898C97.7769 29.0637 97.971 29.396 98.2661 29.6882Z" fill="#16161E"/>
<path fill-rule="evenodd" clip-rule="evenodd" d="M101.037 33.3152C101.211 33.1763 101.348 33.0918 101.449 33.0574C101.571 33.1877 101.677 33.2766 101.766 33.3195C101.855 33.3625 101.953 33.3654 102.06 33.3267C102.166 33.288 102.303 33.2021 102.472 33.0688L104.72 31.2897C104.883 31.1608 104.995 31.0491 105.057 30.9545C105.119 30.86 105.139 30.764 105.117 30.6666C105.095 30.5706 105.035 30.4474 104.935 30.2985C104.997 30.2025 105.112 30.0893 105.28 29.9561C105.553 30.3242 105.797 30.6423 106.01 30.913C106.188 31.1365 106.438 31.4416 106.76 31.8255C106.586 31.963 106.451 32.0518 106.354 32.0919C106.183 31.8985 106.03 31.7982 105.896 31.7897C105.762 31.7811 105.574 31.8727 105.333 32.0647L103.085 33.8438C102.844 34.0343 102.71 34.1976 102.684 34.3323C102.658 34.4669 102.72 34.6388 102.868 34.8508C102.802 34.9396 102.685 35.0514 102.516 35.1846C102.225 34.7935 101.986 34.4798 101.8 34.2449C101.578 33.9641 101.323 33.6533 101.037 33.3152Z" fill="#16161E"/>
<path fill-rule="evenodd" clip-rule="evenodd" d="M104.747 38.5452C104.538 38.2114 104.383 37.8877 104.281 37.5768C104.179 37.2646 104.096 36.9093 104.032 36.5096C104.481 36.322 104.848 36.1272 105.134 35.9223C105.26 36.0298 105.384 36.1802 105.505 36.3736C105.136 36.6214 104.938 36.9122 104.91 37.2459C104.883 37.5797 104.998 37.9536 105.256 38.3661C105.476 38.7185 105.704 38.962 105.941 39.0967C106.177 39.2313 106.386 39.2428 106.568 39.1282C106.696 39.0494 106.775 38.9305 106.807 38.7715C106.838 38.6111 106.841 38.4406 106.816 38.2587C106.79 38.0753 106.741 37.8175 106.667 37.4837C106.56 37.0282 106.491 36.6515 106.461 36.3535C106.431 36.0556 106.462 35.7619 106.555 35.4711C106.648 35.1803 106.843 34.9425 107.141 34.7563C107.547 34.5028 107.953 34.4627 108.357 34.636C108.761 34.8093 109.13 35.1646 109.464 35.6974C109.642 35.9839 109.792 36.2847 109.914 36.6013C110.036 36.9165 110.104 37.18 110.117 37.392C110.047 37.4278 109.941 37.4894 109.802 37.5754C109.529 37.7473 109.325 37.8991 109.19 38.0352C109.043 37.9493 108.905 37.8032 108.777 37.5969C109.07 37.2946 109.225 37.0067 109.242 36.7302C109.259 36.4538 109.179 36.1759 109.006 35.8966C108.838 35.6287 108.658 35.441 108.462 35.3307C108.266 35.2204 108.081 35.2204 107.905 35.3307C107.704 35.4554 107.604 35.653 107.604 35.9238C107.604 36.1931 107.66 36.5798 107.773 37.0841C107.871 37.5124 107.936 37.8733 107.967 38.1656C107.998 38.4592 107.971 38.7414 107.884 39.015C107.798 39.2886 107.615 39.5135 107.336 39.6883C106.935 39.9375 106.508 39.9776 106.054 39.8043C105.6 39.6324 105.164 39.2127 104.747 38.5452Z" fill="#16161E"/>
<path fill-rule="evenodd" clip-rule="evenodd" d="M110.073 45.3533C110.12 45.5441 110.114 45.72 110.053 45.8812C109.693 45.9028 109.259 45.9938 108.751 46.1541L107.903 44.2624C107.478 43.3237 107.128 42.5703 106.854 42.0026C107.057 41.911 107.211 41.8607 107.317 41.8518C107.404 42.009 107.485 42.1193 107.561 42.183C107.637 42.2467 107.735 42.2712 107.854 42.2565C107.973 42.2417 108.137 42.1871 108.346 42.0925L110.917 40.9259C111.107 40.8399 111.242 40.7568 111.323 40.6766C111.405 40.5964 111.447 40.5062 111.448 40.4073C111.451 40.3085 111.422 40.1767 111.365 40.0148C111.448 39.9375 111.587 39.8544 111.783 39.7656C111.982 40.2412 112.209 40.7568 112.459 41.3102C113.004 42.5097 113.375 43.3086 113.571 43.7068C112.991 44.0566 112.614 44.302 112.442 44.4428C112.32 44.3646 112.219 44.2343 112.136 44.0516C112.398 43.9014 112.561 43.6912 112.628 43.4215C112.694 43.1516 112.614 42.7657 112.386 42.2638L112.04 41.501L110.241 42.3175L110.463 42.8064C110.619 43.1519 110.766 43.3738 110.905 43.4719C111.044 43.57 111.22 43.5751 111.431 43.487C111.543 43.6096 111.633 43.7492 111.705 43.9057C111.535 43.9665 111.258 44.0843 110.874 44.2589C110.457 44.4481 110.176 44.5834 110.031 44.6644C109.951 44.4885 109.907 44.3361 109.895 44.2076C110.102 44.0905 110.213 43.9472 110.231 43.7782C110.249 43.609 110.179 43.3516 110.021 43.0061L109.801 42.5172L108.774 42.9832C108.565 43.0779 108.416 43.1708 108.328 43.2619C108.24 43.3532 108.199 43.4622 108.205 43.5889C108.212 43.7157 108.264 43.8866 108.361 44.1018L108.388 44.1605C108.56 44.5385 108.725 44.8156 108.883 44.9913C109.042 45.1671 109.208 45.2765 109.38 45.3199C109.553 45.3633 109.784 45.3744 110.073 45.3533ZM108.388 45.0554L108.427 44.9942C108.405 44.9958 108.384 44.9966 108.361 44.9966C108.338 44.9966 108.316 44.9958 108.293 44.994L108.388 45.0554Z" fill="#16161E"/>
<path fill-rule="evenodd" clip-rule="evenodd" d="M110.153 50.3123C110.367 50.2545 110.527 50.2297 110.633 50.2381C110.693 50.4072 110.756 50.5292 110.822 50.6044C110.886 50.6795 110.975 50.7204 111.088 50.7269C111.202 50.7335 111.361 50.7087 111.568 50.6526L114.336 49.9041C114.536 49.8498 114.684 49.7915 114.778 49.7289C114.873 49.6663 114.929 49.5862 114.946 49.4885C114.965 49.391 114.958 49.2539 114.925 49.0774C115.019 49.0148 115.17 48.9555 115.377 48.8995C115.483 49.3454 115.581 49.7343 115.671 50.066C115.745 50.3424 115.854 50.7206 115.999 51.2006C115.785 51.2586 115.627 51.2868 115.522 51.2854C115.44 51.0403 115.34 50.8876 115.22 50.8275C115.099 50.7673 114.892 50.7773 114.594 50.8577L111.826 51.6063C111.53 51.6866 111.342 51.7835 111.266 51.8971C111.189 52.0105 111.177 52.1934 111.23 52.446C111.134 52.5017 110.982 52.5576 110.775 52.6136C110.662 52.14 110.566 51.758 110.487 51.4678C110.394 51.1223 110.282 50.7371 110.153 50.3123Z" fill="#16161E"/>
<path fill-rule="evenodd" clip-rule="evenodd" d="M116.78 54.8884C116.786 54.9188 116.793 54.9493 116.798 54.9798L113.325 59.074L115.697 58.7436C115.993 58.7022 116.217 58.6513 116.363 58.591C116.51 58.5308 116.609 58.4502 116.661 58.3491C116.711 58.2481 116.731 58.1044 116.72 57.918C116.879 57.8669 117.036 57.8305 117.192 57.8087C117.228 58.1653 117.263 58.4711 117.298 58.7264C117.336 58.9958 117.384 59.2926 117.444 59.6168C117.231 59.6464 117.071 59.6545 116.96 59.641C116.924 59.494 116.87 59.386 116.796 59.317C116.721 59.2478 116.605 59.208 116.447 59.1972C116.291 59.1866 116.064 59.2019 115.766 59.2435L112.011 59.7665C111.957 59.6802 111.915 59.5379 111.887 59.3393L115.578 54.9329L113.025 55.2886C112.72 55.331 112.492 55.3826 112.342 55.4433C112.192 55.5041 112.09 55.585 112.04 55.686C111.988 55.7871 111.968 55.9272 111.978 56.1065C111.871 56.1577 111.713 56.1976 111.507 56.2263C111.468 55.8415 111.431 55.525 111.397 55.2769C111.351 54.9435 111.299 54.622 111.24 54.312C111.447 54.2833 111.609 54.2787 111.728 54.2985C111.766 54.4737 111.823 54.6012 111.899 54.681C111.975 54.7608 112.094 54.8092 112.256 54.8265C112.417 54.8437 112.65 54.8311 112.955 54.7887L116.061 54.3561L116.071 54.3439C116.112 54.2873 116.138 54.2189 116.144 54.1383C116.151 54.058 116.147 53.9069 116.129 53.6851C116.253 53.6318 116.41 53.5919 116.601 53.5652C116.622 53.8225 116.649 54.0716 116.684 54.3127C116.71 54.5018 116.741 54.6929 116.78 54.8857L116.465 55.0454C116.46 55.0865 116.452 55.1272 116.442 55.1671C116.551 55.116 116.671 55.0306 116.78 54.8884Z" fill="#16161E"/>
<path fill-rule="evenodd" clip-rule="evenodd" d="M117.304 69.6105C116.92 69.5671 116.453 69.5656 115.906 69.6061C115.85 69.4522 115.829 69.2753 115.84 69.0752C116.184 69.0805 116.443 69.0039 116.617 68.8453C116.791 68.6867 116.887 68.4288 116.909 68.0714L116.936 67.5996L113.257 67.3896C113.037 67.377 112.872 67.3874 112.766 67.4207C112.662 67.4541 112.584 67.5214 112.536 67.6226C112.485 67.7238 112.448 67.8813 112.422 68.0949C112.334 68.1257 112.183 68.135 111.968 68.1226C112.013 67.5946 112.044 67.1626 112.064 66.8267C112.087 66.4121 112.106 65.9687 112.119 65.4961C112.334 65.5084 112.483 65.5348 112.566 65.5754C112.568 65.7906 112.587 65.9549 112.623 66.0681C112.66 66.1814 112.73 66.2625 112.835 66.3114C112.941 66.3604 113.1 66.3911 113.315 66.4034L116.992 66.6134L117.016 66.1738C117.033 65.8879 117.008 65.666 116.942 65.5081C116.876 65.3501 116.777 65.2315 116.645 65.1523C116.513 65.0731 116.324 65.0013 116.077 64.937C116.089 64.7082 116.131 64.5422 116.201 64.4386C116.681 64.5736 117.144 64.6537 117.586 64.679C117.551 65.0499 117.496 65.8678 117.424 67.1328C117.351 68.4193 117.311 69.2453 117.304 69.6105Z" fill="#16161E"/>
<path fill-rule="evenodd" clip-rule="evenodd" d="M111.866 76.363C111.564 76.3007 111.353 76.3029 111.234 76.3693C111.114 76.4359 111.022 76.5905 110.958 76.833C110.866 76.8506 110.715 76.8378 110.505 76.7942C110.617 76.3203 110.704 75.9363 110.765 75.6418C110.838 75.2913 110.912 74.8973 110.988 74.4597C111.199 74.5033 111.342 74.5513 111.418 74.6037C111.382 74.8519 111.405 75.0304 111.488 75.1391C111.573 75.2477 111.765 75.3332 112.067 75.3957L113.349 75.661C113.627 74.315 113.797 73.4036 113.86 72.9267L112.63 72.6722C112.327 72.6097 112.117 72.6119 111.998 72.6785C111.878 72.7451 111.785 72.9031 111.719 73.1526C111.621 73.1618 111.472 73.1453 111.269 73.1032C111.381 72.6295 111.468 72.2453 111.528 71.9509C111.601 71.6004 111.676 71.2063 111.752 70.7687C111.962 70.8123 112.105 70.8602 112.183 70.9127C112.16 71.0909 112.161 71.2281 112.184 71.3245C112.209 71.4208 112.27 71.4974 112.368 71.5541C112.465 71.611 112.62 71.6611 112.83 71.7047L115.701 72.2986C115.904 72.3407 116.062 72.355 116.174 72.3417C116.287 72.3285 116.373 72.2824 116.433 72.2035C116.493 72.1245 116.549 71.9989 116.599 71.8264C116.704 71.8117 116.855 71.8247 117.052 71.8653C116.944 72.311 116.857 72.7023 116.787 73.0387C116.728 73.3191 116.656 73.7061 116.568 74.1997C116.366 74.1576 116.221 74.1132 116.135 74.0664C116.174 73.811 116.152 73.6295 116.072 73.5215C115.993 73.4136 115.801 73.3284 115.5 73.2661L114.374 73.0333L113.811 75.7568L114.937 75.9896C115.141 76.0316 115.298 76.0443 115.412 76.0274C115.525 76.0106 115.612 75.9628 115.671 75.8839C115.731 75.805 115.787 75.6793 115.837 75.507C115.949 75.5007 116.098 75.517 116.288 75.5563C116.181 76.0021 116.093 76.3897 116.025 76.7191C115.966 77.0065 115.893 77.3971 115.804 77.8907C115.622 77.8529 115.479 77.805 115.374 77.7468C115.412 77.4915 115.391 77.3116 115.31 77.2072C115.23 77.1028 115.038 77.0194 114.737 76.9569L111.866 76.363Z" fill="#16161E"/>
<path fill-rule="evenodd" clip-rule="evenodd" d="M109.923 83.043C109.822 83.2117 109.693 83.3322 109.537 83.404C109.266 83.1663 108.894 82.9252 108.419 82.6809L109.149 80.741C109.507 79.7744 109.789 78.9932 109.994 78.3974C110.202 78.4745 110.347 78.5472 110.428 78.6157C110.38 78.7885 110.359 78.9242 110.369 79.0231C110.378 79.1219 110.431 79.208 110.526 79.2814C110.62 79.3547 110.775 79.4312 110.99 79.5107L113.638 80.4916C113.833 80.5637 113.988 80.5999 114.102 80.6004C114.217 80.6006 114.309 80.5664 114.38 80.4974C114.452 80.4285 114.525 80.3159 114.598 80.1597C114.711 80.1635 114.867 80.2026 115.069 80.2772C114.877 80.7555 114.675 81.2801 114.463 81.8506C114.006 83.086 113.707 83.9141 113.567 84.3354C112.908 84.1754 112.468 84.0851 112.247 84.0642C112.216 83.9227 112.235 83.7579 112.303 83.57C112.596 83.6475 112.861 83.6138 113.097 83.4687C113.335 83.3236 113.548 82.9927 113.74 82.4757L114.031 81.6903L112.177 81.004L111.991 81.5075C111.859 81.8634 111.809 82.1249 111.838 82.2924C111.868 82.4598 111.988 82.5868 112.202 82.673C112.193 82.8381 112.16 83.0012 112.1 83.1623C111.937 83.0867 111.657 82.9757 111.262 82.8288C110.832 82.6698 110.537 82.5683 110.378 82.5246C110.445 82.3434 110.52 82.2031 110.603 82.1039C110.832 82.1658 111.011 82.1428 111.143 82.0351C111.275 81.9272 111.407 81.6955 111.538 81.3397L111.725 80.8361L110.667 80.4447C110.453 80.365 110.282 80.3266 110.155 80.3292C110.029 80.3318 109.923 80.3803 109.838 80.475C109.752 80.5696 109.669 80.7277 109.587 80.9492L109.564 81.0096C109.421 81.399 109.342 81.7118 109.332 81.9482C109.321 82.1845 109.361 82.3789 109.454 82.5315C109.546 82.684 109.702 82.8545 109.923 83.043Z" fill="#16161E"/>
<path fill-rule="evenodd" clip-rule="evenodd" d="M16.5732 84.244C16.7433 84.1808 17.0134 84.0647 17.3834 83.8955C17.8001 83.7051 18.0803 83.5692 18.2241 83.4877C18.3045 83.6634 18.3505 83.8157 18.3619 83.9442C18.2112 84.0303 18.1111 84.1303 18.0616 84.244H16.5732ZM15.0308 84.244C15.4178 84.0029 15.6787 83.8269 15.8136 83.7157C15.9358 83.7936 16.0385 83.9239 16.1219 84.1061C16.0501 84.1476 15.9856 84.1936 15.9286 84.244H15.0308ZM19.9783 84.244C19.9558 84.1827 19.9285 84.1167 19.8961 84.0459L19.8693 83.9873C19.6967 83.6097 19.531 83.3331 19.3721 83.1578C19.2133 82.9825 19.0474 82.8734 18.8742 82.8305C18.7011 82.7876 18.4701 82.777 18.181 82.7991C18.1332 82.6083 18.1393 82.4324 18.1995 82.2711C18.559 82.2485 18.9931 82.1564 19.5017 81.9946L20.3535 83.8842C20.4098 84.0072 20.4646 84.1273 20.5184 84.244H19.9783Z" fill="#16161E"/>
<path fill-rule="evenodd" clip-rule="evenodd" d="M18.0831 77.8243C17.8691 77.8828 17.7089 77.908 17.6028 77.8998C17.5419 77.7309 17.4789 77.609 17.414 77.534C17.349 77.4589 17.26 77.4182 17.147 77.4121C17.034 77.4058 16.8738 77.431 16.6667 77.4876L13.9008 78.2425C13.7004 78.2972 13.5532 78.3559 13.459 78.4187C13.3649 78.4815 13.3089 78.5618 13.291 78.6593C13.2731 78.757 13.2808 78.8941 13.3142 79.0704C13.2199 79.1333 13.0694 79.1929 12.8621 79.2495C12.7552 78.8037 12.6567 78.4151 12.5661 78.0836C12.4906 77.8074 12.3801 77.4294 12.2344 76.9498C12.4484 76.8914 12.6075 76.8627 12.7118 76.864C12.7935 77.1088 12.8945 77.2612 13.0148 77.3211C13.135 77.3811 13.3435 77.3705 13.6405 77.2894L16.4064 76.5344C16.7035 76.4533 16.8901 76.3561 16.9668 76.2423C17.0434 76.1287 17.0546 75.9457 17.0006 75.6933C17.0966 75.6374 17.2483 75.5811 17.4554 75.5245C17.5698 75.9979 17.6665 76.3797 17.7458 76.6698C17.84 77.0151 17.9525 77.3999 18.0831 77.8243Z" fill="#16161E"/>
<path fill-rule="evenodd" clip-rule="evenodd" d="M11.4457 73.2659C11.4397 73.2356 11.4335 73.2052 11.4272 73.1748L14.8913 69.0723L12.5203 69.4083C12.2226 69.4506 12.0003 69.5019 11.8535 69.5625C11.7067 69.6231 11.6078 69.704 11.5571 69.8051C11.5063 69.9062 11.4869 70.0501 11.4988 70.2364C11.3398 70.2878 11.1824 70.3245 11.0265 70.3467C10.9904 69.9903 10.9543 69.6845 10.9181 69.4294C10.88 69.1599 10.8307 68.8633 10.7703 68.5393C10.983 68.5092 11.1444 68.5007 11.2547 68.5139C11.2901 68.6609 11.3451 68.7687 11.4199 68.8376C11.4948 68.9065 11.6107 68.9462 11.7675 68.9565C11.9245 68.9667 12.1519 68.9508 12.4495 68.9087L16.2026 68.3768C16.2582 68.4629 16.3 68.6051 16.3282 68.8037L12.6482 73.2187L15.1999 72.8571C15.5047 72.8138 15.7323 72.7617 15.8827 72.7007C16.0331 72.6395 16.1337 72.5584 16.1844 72.4573C16.2351 72.356 16.255 72.2159 16.2441 72.0367C16.3524 71.9852 16.5094 71.9448 16.715 71.9157C16.7551 72.3005 16.7926 72.6169 16.8278 72.865C16.875 73.1982 16.9278 73.5196 16.9861 73.8295C16.7806 73.8585 16.6187 73.8635 16.5002 73.8441C16.461 73.6689 16.4031 73.5415 16.3268 73.462C16.2504 73.3824 16.1315 73.3343 15.9701 73.3174C15.8086 73.3005 15.5754 73.3136 15.2706 73.3567L12.1662 73.7968L12.157 73.8088C12.1145 73.8656 12.0898 73.934 12.0831 74.0145C12.0801 74.0503 12.0795 74.1002 12.0812 74.1639L11.9159 74.0324C11.7486 73.6004 11.5402 73.1403 11.4505 73.2593C11.449 73.2616 11.4472 73.2638 11.4457 73.2659ZM11.8936 74.5371C11.814 74.5577 11.7253 74.5751 11.6276 74.5888C11.6196 74.4941 11.6107 74.4004 11.6008 74.3078C11.6965 74.3991 11.8009 74.4764 11.8936 74.5371ZM11.5584 73.9506C11.5535 73.9141 11.5485 73.8777 11.5435 73.8416C11.5176 73.6587 11.4863 73.4739 11.4498 73.2874L11.6448 73.6779C11.6804 73.6697 11.7124 73.6601 11.7405 73.6478L11.68 73.7484L11.7597 73.908L11.6409 73.8134L11.5584 73.9506ZM11.9159 74.0324C11.9791 74.1952 12.0363 74.3539 12.0792 74.4761C12.0694 74.4802 12.0595 74.4841 12.0493 74.488L11.7597 73.908L11.9159 74.0324Z" fill="#16161E"/>
<path d="M36.7322 114.101C38.8803 109.703 42.0579 105.897 45.9501 102.999M82.2523 102.999C86.1447 105.897 89.3221 109.703 91.4702 114.101" stroke="#16161E" stroke-width="0.894942" stroke-miterlimit="1.5" stroke-linecap="round" stroke-linejoin="round"/>
<path d="M33.4497 112.157C39.0675 100.915 50.6895 93.187 64.102 93.187C77.5149 93.187 89.1368 100.915 94.7546 112.157" stroke="#16161E" stroke-width="0.895826" stroke-miterlimit="1.5" stroke-linecap="round" stroke-linejoin="round"/>
<path fill-rule="evenodd" clip-rule="evenodd" d="M43.7188 124.078C18.7051 115.582 0.686279 91.8864 0.686279 64.0155C0.686279 29.0158 29.1018 0.600464 64.1021 0.600464C99.1002 0.600464 127.516 29.0158 127.516 64.0155C127.516 91.8864 109.497 115.582 84.4833 124.078C79.4234 125.797 74.0801 126.893 68.5413 127.277C67.0745 127.379 65.5926 127.43 64.1021 127.43C62.6095 127.43 61.1298 127.379 59.6629 127.277C54.122 126.893 48.7786 125.797 43.7188 124.078Z" stroke="#16161E" stroke-width="0.895571" stroke-miterlimit="1.5" stroke-linecap="round" stroke-linejoin="round"/>
<path d="M38.9415 88.1099L35.0693 91.9821V91.9757H14.3445" stroke="#16161E" stroke-width="0.895571" stroke-miterlimit="1.5" stroke-linecap="round" stroke-linejoin="round"/>
<path d="M12.3552 88.1097H115.846" stroke="#16161E" stroke-width="0.883345" stroke-miterlimit="1.5" stroke-linecap="round" stroke-linejoin="round"/>
<path d="M16.7302 95.8414H50.8666M77.3363 95.8414H111.472" stroke="#16161E" stroke-width="0.883592" stroke-miterlimit="1.5" stroke-linecap="round" stroke-linejoin="round"/>
<path d="M89.2664 88.1097L93.132 91.9755H113.857" stroke="#16161E" stroke-width="0.883921" stroke-miterlimit="1.5" stroke-linecap="round" stroke-linejoin="round"/>
<path d="M46.4719 98.0733L44.239 95.8416" stroke="#16161E" stroke-width="0.895246" stroke-miterlimit="1.5" stroke-linecap="round" stroke-linejoin="round"/>
<path d="M81.7297 98.0733L83.9638 95.8414" stroke="#16161E" stroke-width="0.893651" stroke-miterlimit="1.5" stroke-linecap="round" stroke-linejoin="round"/>
<path d="M84.4065 99.862L88.4301 95.8424" stroke="#16161E" stroke-width="0.896185" stroke-miterlimit="1.5" stroke-linecap="round" stroke-linejoin="round"/>
<path d="M86.8682 101.861L92.8939 95.8416" stroke="#16161E" stroke-width="0.89702" stroke-miterlimit="1.5" stroke-linecap="round" stroke-linejoin="round"/>
<path d="M89.1245 104.068L97.3583 95.8423" stroke="#16161E" stroke-width="0.89824" stroke-miterlimit="1.5" stroke-linecap="round" stroke-linejoin="round"/>
<path d="M91.1755 106.478L101.823 95.8412" stroke="#16161E" stroke-width="0.895333" stroke-miterlimit="1.5" stroke-linecap="round" stroke-linejoin="round"/>
<path d="M93.0227 109.098L106.293 95.8411" stroke="#16161E" stroke-width="0.88975" stroke-miterlimit="1.5" stroke-linecap="round" stroke-linejoin="round"/>
<path d="M94.6387 111.941L110.755 95.8412" stroke="#16161E" stroke-width="0.89738" stroke-miterlimit="1.5" stroke-linecap="round" stroke-linejoin="round"/>
<path d="M43.7938 99.8602L39.7725 95.8407" stroke="#16161E" stroke-width="0.895322" stroke-miterlimit="1.5" stroke-linecap="round" stroke-linejoin="round"/>
<path d="M41.3316 101.86L35.3093 95.8407" stroke="#16161E" stroke-width="0.897667" stroke-miterlimit="1.5" stroke-linecap="round" stroke-linejoin="round"/>
<path d="M39.0753 104.066L30.8462 95.8411" stroke="#16161E" stroke-width="0.892785" stroke-miterlimit="1.5" stroke-linecap="round" stroke-linejoin="round"/>
<path d="M37.0227 106.478L26.3816 95.8418" stroke="#16161E" stroke-width="0.893452" stroke-miterlimit="1.5" stroke-linecap="round" stroke-linejoin="round"/>
<path d="M35.1819 109.098L21.9187 95.8408" stroke="#16161E" stroke-width="0.9009" stroke-miterlimit="1.5" stroke-linecap="round" stroke-linejoin="round"/>
<path d="M33.5615 111.942L17.4546 95.8424" stroke="#16161E" stroke-width="0.896521" stroke-miterlimit="1.5" stroke-linecap="round" stroke-linejoin="round"/>
<path d="M10.7224 84.2442H117.48" stroke="#16161E" stroke-width="0.895571" stroke-miterlimit="1.5" stroke-linecap="round" stroke-linejoin="round"/>
<path d="M64.1023 2.50305V5.03955" stroke="#16161E" stroke-width="0.8317" stroke-miterlimit="1.5" stroke-linecap="square" stroke-linejoin="round"/>
<path d="M53.4207 3.4375L53.8611 5.93547" stroke="#16161E" stroke-width="0.8317" stroke-miterlimit="1.5" stroke-linecap="square" stroke-linejoin="round"/>
<path d="M43.064 6.21234L43.9315 8.59587" stroke="#16161E" stroke-width="0.8317" stroke-miterlimit="1.5" stroke-linecap="square" stroke-linejoin="round"/>
<path d="M33.3457 10.7431L34.614 12.9398" stroke="#16161E" stroke-width="0.8317" stroke-miterlimit="1.5" stroke-linecap="square" stroke-linejoin="round"/>
<path d="M24.5625 16.8934L26.1929 18.8365" stroke="#16161E" stroke-width="0.8317" stroke-miterlimit="1.5" stroke-linecap="square" stroke-linejoin="round"/>
<path d="M16.9807 24.4752L18.9238 26.1056" stroke="#16161E" stroke-width="0.8317" stroke-miterlimit="1.5" stroke-linecap="square" stroke-linejoin="round"/>
<path d="M10.8303 33.2588L13.027 34.527" stroke="#16161E" stroke-width="0.8317" stroke-miterlimit="1.5" stroke-linecap="square" stroke-linejoin="round"/>
<path d="M6.29883 42.9753L8.68236 43.8428" stroke="#16161E" stroke-width="0.8317" stroke-miterlimit="1.5" stroke-linecap="square" stroke-linejoin="round"/>
<path d="M3.52344 53.3338L6.0214 53.7743" stroke="#16161E" stroke-width="0.8317" stroke-miterlimit="1.5" stroke-linecap="square" stroke-linejoin="round"/>
<path d="M2.59009 64.015H5.12659" stroke="#16161E" stroke-width="0.8317" stroke-miterlimit="1.5" stroke-linecap="square" stroke-linejoin="round"/>
<path d="M3.52246 74.6951L6.02043 74.2546" stroke="#16161E" stroke-width="0.8317" stroke-miterlimit="1.5" stroke-linecap="square" stroke-linejoin="round"/>
<path d="M6.29932 85.0527L8.68285 84.1852" stroke="#16161E" stroke-width="0.8317" stroke-miterlimit="1.5" stroke-linecap="square" stroke-linejoin="round"/>
<path d="M10.8296 94.7704L13.0263 93.5021" stroke="#16161E" stroke-width="0.8317" stroke-miterlimit="1.5" stroke-linecap="square" stroke-linejoin="round"/>
<path d="M16.98 103.555L18.9231 101.924" stroke="#16161E" stroke-width="0.8317" stroke-miterlimit="1.5" stroke-linecap="square" stroke-linejoin="round"/>
<path d="M24.5618 111.136L26.1922 109.193" stroke="#16161E" stroke-width="0.8317" stroke-miterlimit="1.5" stroke-linecap="square" stroke-linejoin="round"/>
<path d="M33.3452 117.287L34.6135 115.09" stroke="#16161E" stroke-width="0.8317" stroke-miterlimit="1.5" stroke-linecap="square" stroke-linejoin="round"/>
<path d="M43.0618 121.819L43.9293 119.435" stroke="#16161E" stroke-width="0.8317" stroke-miterlimit="1.5" stroke-linecap="square" stroke-linejoin="round"/>
<path d="M53.418 124.593L53.8584 122.095" stroke="#16161E" stroke-width="0.8317" stroke-miterlimit="1.5" stroke-linecap="square" stroke-linejoin="round"/>
<path d="M64.0991 125.529L64.0991 122.992" stroke="#16161E" stroke-width="0.8317" stroke-miterlimit="1.5" stroke-linecap="square" stroke-linejoin="round"/>
<path d="M74.7815 124.593L74.341 122.095" stroke="#16161E" stroke-width="0.8317" stroke-miterlimit="1.5" stroke-linecap="square" stroke-linejoin="round"/>
<path d="M85.1394 121.818L84.2719 119.435" stroke="#16161E" stroke-width="0.8317" stroke-miterlimit="1.5" stroke-linecap="square" stroke-linejoin="round"/>
<path d="M94.8567 117.287L93.5884 115.09" stroke="#16161E" stroke-width="0.8317" stroke-miterlimit="1.5" stroke-linecap="square" stroke-linejoin="round"/>
<path d="M103.641 111.137L102.01 109.194" stroke="#16161E" stroke-width="0.8317" stroke-miterlimit="1.5" stroke-linecap="square" stroke-linejoin="round"/>
<path d="M111.222 103.555L109.279 101.925" stroke="#16161E" stroke-width="0.8317" stroke-miterlimit="1.5" stroke-linecap="square" stroke-linejoin="round"/>
<path d="M117.371 94.7723L115.175 93.5041" stroke="#16161E" stroke-width="0.8317" stroke-miterlimit="1.5" stroke-linecap="square" stroke-linejoin="round"/>
<path d="M121.903 85.0548L119.519 84.1873" stroke="#16161E" stroke-width="0.8317" stroke-miterlimit="1.5" stroke-linecap="square" stroke-linejoin="round"/>
<path d="M124.68 74.6984L122.182 74.2579" stroke="#16161E" stroke-width="0.8317" stroke-miterlimit="1.5" stroke-linecap="square" stroke-linejoin="round"/>
<path d="M125.613 64.0172L123.077 64.0172" stroke="#16161E" stroke-width="0.8317" stroke-miterlimit="1.5" stroke-linecap="square" stroke-linejoin="round"/>
<path d="M124.678 53.3351L122.18 53.7755" stroke="#16161E" stroke-width="0.8317" stroke-miterlimit="1.5" stroke-linecap="square" stroke-linejoin="round"/>
<path d="M121.904 42.9772L119.52 43.8448" stroke="#16161E" stroke-width="0.8317" stroke-miterlimit="1.5" stroke-linecap="square" stroke-linejoin="round"/>
<path d="M117.373 33.2596L115.177 34.5279" stroke="#16161E" stroke-width="0.8317" stroke-miterlimit="1.5" stroke-linecap="square" stroke-linejoin="round"/>
<path d="M111.223 24.4775L109.28 26.108" stroke="#16161E" stroke-width="0.8317" stroke-miterlimit="1.5" stroke-linecap="square" stroke-linejoin="round"/>
<path d="M103.641 16.8949L102.011 18.838" stroke="#16161E" stroke-width="0.8317" stroke-miterlimit="1.5" stroke-linecap="square" stroke-linejoin="round"/>
<path d="M94.8582 10.7446L93.5899 12.9413" stroke="#16161E" stroke-width="0.8317" stroke-miterlimit="1.5" stroke-linecap="square" stroke-linejoin="round"/>
<path d="M85.1409 6.21289L84.2733 8.59642" stroke="#16161E" stroke-width="0.8317" stroke-miterlimit="1.5" stroke-linecap="square" stroke-linejoin="round"/>
<path d="M74.7837 3.43762L74.3432 5.93559" stroke="#16161E" stroke-width="0.8317" stroke-miterlimit="1.5" stroke-linecap="square" stroke-linejoin="round"/>
<path d="M58.9582 5.24488C59.6454 5.18475 60.1538 4.5789 60.0937 3.89167C60.0335 3.20443 59.4277 2.69606 58.7405 2.75618C58.0532 2.81631 57.5448 3.42216 57.605 4.1094C57.6651 4.79663 58.271 5.305 58.9582 5.24488Z" stroke="#16161E" stroke-width="0.894871" stroke-miterlimit="1.5" stroke-linecap="round" stroke-linejoin="round"/>
<path d="M48.8336 7.03108C49.5 6.85253 49.8954 6.1676 49.7169 5.50125C49.5383 4.83489 48.8534 4.43944 48.187 4.61799C47.5207 4.79654 47.1252 5.48147 47.3038 6.14783C47.4823 6.81419 48.1673 7.20963 48.8336 7.03108Z" stroke="#16161E" stroke-width="0.894876" stroke-miterlimit="1.5" stroke-linecap="round" stroke-linejoin="round"/>
<path d="M39.1676 10.5476C39.7928 10.256 40.0633 9.51284 39.7718 8.88762C39.4802 8.2624 38.737 7.99189 38.1118 8.28344C37.4866 8.57499 37.2161 9.31819 37.5076 9.94341C37.7992 10.5686 38.5424 10.8391 39.1676 10.5476Z" stroke="#16161E" stroke-width="0.894871" stroke-miterlimit="1.5" stroke-linecap="round" stroke-linejoin="round"/>
<path d="M30.263 15.6898C30.8281 15.2941 30.9654 14.5152 30.5698 13.9501C30.1741 13.385 29.3952 13.2476 28.8301 13.6433C28.265 14.039 28.1277 14.8179 28.5233 15.383C28.919 15.9481 29.6979 16.0854 30.263 15.6898Z" stroke="#16161E" stroke-width="0.894873" stroke-miterlimit="1.5" stroke-linecap="round" stroke-linejoin="round"/>
<path d="M22.3851 22.299C22.8729 21.8112 22.8729 21.0203 22.3851 20.5325C21.8973 20.0447 21.1064 20.0447 20.6186 20.5325C20.1308 21.0203 20.1308 21.8112 20.6186 22.299C21.1064 22.7868 21.8973 22.7868 22.3851 22.299Z" stroke="#16161E" stroke-width="0.894873" stroke-miterlimit="1.5" stroke-linecap="round" stroke-linejoin="round"/>
<path d="M15.7751 30.1779C16.1708 29.6128 16.0334 28.834 15.4683 28.4383C14.9032 28.0426 14.1244 28.1799 13.7287 28.745C13.333 29.3101 13.4703 30.089 14.0354 30.4847C14.6005 30.8804 15.3794 30.743 15.7751 30.1779Z" stroke="#16161E" stroke-width="0.894873" stroke-miterlimit="1.5" stroke-linecap="round" stroke-linejoin="round"/>
<path d="M10.6336 39.0839C10.9251 38.4587 10.6546 37.7155 10.0294 37.424C9.40419 37.1324 8.661 37.4029 8.36945 38.0281C8.07791 38.6534 8.3484 39.3966 8.97362 39.6881C9.59885 39.9797 10.342 39.7091 10.6336 39.0839Z" stroke="#16161E" stroke-width="0.894871" stroke-miterlimit="1.5" stroke-linecap="round" stroke-linejoin="round"/>
<path d="M7.11652 48.745C7.29506 48.0786 6.89961 47.3937 6.23326 47.2152C5.5669 47.0366 4.88197 47.432 4.70342 48.0984C4.52487 48.7648 4.92032 49.4497 5.58667 49.6283C6.25303 49.8068 6.93797 49.4113 7.11652 48.745Z" stroke="#16161E" stroke-width="0.894876" stroke-miterlimit="1.5" stroke-linecap="round" stroke-linejoin="round"/>
<path d="M5.33047 58.8746C5.3906 58.1874 4.88222 57.5815 4.19499 57.5214C3.50776 57.4613 2.9019 57.9696 2.84178 58.6569C2.78165 59.3441 3.29002 59.95 3.97726 60.0101C4.66449 60.0702 5.27035 59.5618 5.33047 58.8746Z" stroke="#16161E" stroke-width="0.894871" stroke-miterlimit="1.5" stroke-linecap="round" stroke-linejoin="round"/>
<path d="M5.33173 69.158C5.27161 68.4707 4.66575 67.9624 3.97852 68.0225C3.29129 68.0826 2.78291 68.6885 2.84304 69.3757C2.90316 70.0629 3.50902 70.5713 4.19625 70.5112C4.88349 70.4511 5.39186 69.8452 5.33173 69.158Z" stroke="#16161E" stroke-width="0.894871" stroke-miterlimit="1.5" stroke-linecap="round" stroke-linejoin="round"/>
<path d="M7.11714 79.2824C6.93859 78.616 6.25366 78.2206 5.58731 78.3991C4.92095 78.5777 4.5255 79.2626 4.70405 79.9289C4.8826 80.5953 5.56753 80.9908 6.23389 80.8122C6.90025 80.6337 7.29569 79.9487 7.11714 79.2824Z" stroke="#16161E" stroke-width="0.894876" stroke-miterlimit="1.5" stroke-linecap="round" stroke-linejoin="round"/>
<path d="M10.6332 88.9489C10.3417 88.3237 9.59848 88.0532 8.97325 88.3447C8.34803 88.6363 8.07752 89.3794 8.36907 90.0047C8.66062 90.6299 9.40382 90.9004 10.029 90.6089C10.6543 90.3173 10.9248 89.5741 10.6332 88.9489Z" stroke="#16161E" stroke-width="0.894871" stroke-miterlimit="1.5" stroke-linecap="round" stroke-linejoin="round"/>
<path d="M15.7762 97.8545C15.3805 97.2894 14.6017 97.1521 14.0366 97.5477C13.4715 97.9434 13.3341 98.7223 13.7298 99.2874C14.1255 99.8525 14.9044 99.9898 15.4695 99.5942C16.0346 99.1985 16.1719 98.4196 15.7762 97.8545Z" stroke="#16161E" stroke-width="0.894873" stroke-miterlimit="1.5" stroke-linecap="round" stroke-linejoin="round"/>
<path d="M22.3857 105.732C21.8979 105.244 21.107 105.244 20.6192 105.732C20.1314 106.22 20.1314 107.01 20.6192 107.498C21.107 107.986 21.8979 107.986 22.3857 107.498C22.8735 107.01 22.8735 106.22 22.3857 105.732Z" stroke="#16161E" stroke-width="0.894873" stroke-miterlimit="1.5" stroke-linecap="round" stroke-linejoin="round"/>
<path d="M30.2622 112.341C29.6971 111.946 28.9183 112.083 28.5226 112.648C28.1269 113.213 28.2642 113.992 28.8293 114.388C29.3944 114.783 30.1733 114.646 30.569 114.081C30.9647 113.516 30.8273 112.737 30.2622 112.341Z" stroke="#16161E" stroke-width="0.894873" stroke-miterlimit="1.5" stroke-linecap="round" stroke-linejoin="round"/>
<path d="M39.1703 117.482C38.5451 117.191 37.8019 117.461 37.5103 118.086C37.2188 118.712 37.4893 119.455 38.1145 119.746C38.7397 120.038 39.4829 119.767 39.7745 119.142C40.066 118.517 39.7955 117.774 39.1703 117.482Z" stroke="#16161E" stroke-width="0.894871" stroke-miterlimit="1.5" stroke-linecap="round" stroke-linejoin="round"/>
<path d="M48.8314 121C48.165 120.821 47.4801 121.217 47.3016 121.883C47.123 122.55 47.5184 123.235 48.1848 123.413C48.8512 123.592 49.5361 123.196 49.7146 122.53C49.8932 121.863 49.4977 121.179 48.8314 121Z" stroke="#16161E" stroke-width="0.894876" stroke-miterlimit="1.5" stroke-linecap="round" stroke-linejoin="round"/>
<path d="M58.9609 122.787C58.2737 122.727 57.6678 123.235 57.6077 123.923C57.5476 124.61 58.056 125.216 58.7432 125.276C59.4304 125.336 60.0363 124.828 60.0964 124.14C60.1565 123.453 59.6482 122.847 58.9609 122.787Z" stroke="#16161E" stroke-width="0.894871" stroke-miterlimit="1.5" stroke-linecap="round" stroke-linejoin="round"/>
<path d="M69.2442 122.785C68.557 122.845 68.0486 123.451 68.1087 124.138C68.1689 124.825 68.7747 125.334 69.4619 125.274C70.1492 125.213 70.6576 124.608 70.5974 123.92C70.5373 123.233 69.9314 122.725 69.2442 122.785Z" stroke="#16161E" stroke-width="0.894871" stroke-miterlimit="1.5" stroke-linecap="round" stroke-linejoin="round"/>
<path d="M79.3688 121C78.7024 121.178 78.307 121.863 78.4855 122.529C78.6641 123.196 79.349 123.591 80.0154 123.413C80.6817 123.234 81.0772 122.549 80.8986 121.883C80.7201 121.216 80.0351 120.821 79.3688 121Z" stroke="#16161E" stroke-width="0.894876" stroke-miterlimit="1.5" stroke-linecap="round" stroke-linejoin="round"/>
<path d="M89.0353 117.483C88.41 117.775 88.1396 118.518 88.4311 119.143C88.7227 119.769 89.4658 120.039 90.0911 119.748C90.7163 119.456 90.9868 118.713 90.6952 118.088C90.4037 117.462 89.6605 117.192 89.0353 117.483Z" stroke="#16161E" stroke-width="0.894871" stroke-miterlimit="1.5" stroke-linecap="round" stroke-linejoin="round"/>
<path d="M97.9389 112.341C97.3738 112.737 97.2365 113.516 97.6321 114.081C98.0278 114.646 98.8067 114.783 99.3718 114.387C99.9369 113.992 100.074 113.213 99.6786 112.648C99.2829 112.083 98.504 111.945 97.9389 112.341Z" stroke="#16161E" stroke-width="0.894873" stroke-miterlimit="1.5" stroke-linecap="round" stroke-linejoin="round"/>
<path d="M105.818 105.731C105.33 106.219 105.33 107.01 105.818 107.497C106.306 107.985 107.097 107.985 107.585 107.497C108.073 107.01 108.073 106.219 107.585 105.731C107.097 105.243 106.306 105.243 105.818 105.731Z" stroke="#16161E" stroke-width="0.894873" stroke-miterlimit="1.5" stroke-linecap="round" stroke-linejoin="round"/>
<path d="M112.428 97.8534C112.032 98.4185 112.169 99.1974 112.735 99.5931C113.3 99.9888 114.079 99.8514 114.474 99.2863C114.87 98.7212 114.733 97.9424 114.167 97.5467C113.602 97.151 112.823 97.2883 112.428 97.8534Z" stroke="#16161E" stroke-width="0.894873" stroke-miterlimit="1.5" stroke-linecap="round" stroke-linejoin="round"/>
<path d="M117.569 88.946C117.277 89.5713 117.548 90.3144 118.173 90.606C118.798 90.8975 119.541 90.6271 119.833 90.0018C120.124 89.3766 119.854 88.6334 119.229 88.3419C118.604 88.0503 117.86 88.3208 117.569 88.946Z" stroke="#16161E" stroke-width="0.894871" stroke-miterlimit="1.5" stroke-linecap="round" stroke-linejoin="round"/>
<path d="M121.086 79.285C120.908 79.9514 121.303 80.6363 121.97 80.8148C122.636 80.9934 123.321 80.598 123.499 79.9316C123.678 79.2652 123.283 78.5803 122.616 78.4017C121.95 78.2232 121.265 78.6187 121.086 79.285Z" stroke="#16161E" stroke-width="0.894876" stroke-miterlimit="1.5" stroke-linecap="round" stroke-linejoin="round"/>
<path d="M122.871 69.1554C122.811 69.8426 123.32 70.4485 124.007 70.5086C124.694 70.5687 125.3 70.0604 125.36 69.3731C125.42 68.6859 124.912 68.08 124.225 68.0199C123.537 67.9598 122.932 68.4682 122.871 69.1554Z" stroke="#16161E" stroke-width="0.894871" stroke-miterlimit="1.5" stroke-linecap="round" stroke-linejoin="round"/>
<path d="M122.871 58.872C122.932 59.5592 123.537 60.0676 124.225 60.0075C124.912 59.9473 125.42 59.3415 125.36 58.6543C125.3 57.967 124.694 57.4587 124.007 57.5188C123.32 57.5789 122.811 58.1848 122.871 58.872Z" stroke="#16161E" stroke-width="0.894871" stroke-miterlimit="1.5" stroke-linecap="round" stroke-linejoin="round"/>
<path d="M121.086 48.7476C121.264 49.414 121.949 49.8094 122.616 49.6309C123.282 49.4523 123.677 48.7674 123.499 48.1011C123.32 47.4347 122.635 47.0392 121.969 47.2178C121.303 47.3963 120.907 48.0813 121.086 48.7476Z" stroke="#16161E" stroke-width="0.894876" stroke-miterlimit="1.5" stroke-linecap="round" stroke-linejoin="round"/>
<path d="M117.57 39.0811C117.861 39.7063 118.604 39.9768 119.23 39.6853C119.855 39.3937 120.125 38.6506 119.834 38.0253C119.542 37.4001 118.799 37.1296 118.174 37.4211C117.549 37.7127 117.278 38.4559 117.57 39.0811Z" stroke="#16161E" stroke-width="0.894871" stroke-miterlimit="1.5" stroke-linecap="round" stroke-linejoin="round"/>
<path d="M112.427 30.1776C112.823 30.7427 113.601 30.8801 114.167 30.4844C114.732 30.0887 114.869 29.3098 114.473 28.7447C114.078 28.1796 113.299 28.0423 112.734 28.438C112.169 28.8336 112.031 29.6125 112.427 30.1776Z" stroke="#16161E" stroke-width="0.894873" stroke-miterlimit="1.5" stroke-linecap="round" stroke-linejoin="round"/>
<path d="M105.817 22.2984C106.305 22.7862 107.096 22.7862 107.583 22.2984C108.071 21.8106 108.071 21.0197 107.583 20.5319C107.096 20.0441 106.305 20.0441 105.817 20.5319C105.329 21.0197 105.329 21.8106 105.817 22.2984Z" stroke="#16161E" stroke-width="0.894873" stroke-miterlimit="1.5" stroke-linecap="round" stroke-linejoin="round"/>
<path d="M97.9394 15.6887C98.5045 16.0844 99.2834 15.9471 99.6791 15.382C100.075 14.8169 99.9374 14.038 99.3723 13.6423C98.8072 13.2466 98.0284 13.3839 97.6327 13.949C97.237 14.5141 97.3743 15.293 97.9394 15.6887Z" stroke="#16161E" stroke-width="0.894873" stroke-miterlimit="1.5" stroke-linecap="round" stroke-linejoin="round"/>
<path d="M89.0321 10.5476C89.6573 10.8391 90.4005 10.5686 90.6921 9.94341C90.9836 9.31819 90.7131 8.575 90.0879 8.28346C89.4627 7.99191 88.7195 8.2624 88.4279 8.88762C88.1364 9.51285 88.4069 10.256 89.0321 10.5476Z" stroke="#16161E" stroke-width="0.894871" stroke-miterlimit="1.5" stroke-linecap="round" stroke-linejoin="round"/>
<path d="M79.372 7.03076C80.0383 7.20931 80.7233 6.81386 80.9018 6.1475C81.0804 5.48115 80.6849 4.79622 80.0186 4.61767C79.3522 4.43912 78.6673 4.83456 78.4887 5.50092C78.3102 6.16728 78.7056 6.85221 79.372 7.03076Z" stroke="#16161E" stroke-width="0.894876" stroke-miterlimit="1.5" stroke-linecap="round" stroke-linejoin="round"/>
<path d="M69.2417 5.2446C69.929 5.30472 70.5348 4.79635 70.5949 4.10911C70.655 3.42188 70.1467 2.81603 69.4595 2.7559C68.7722 2.69578 68.1663 3.20415 68.1062 3.89138C68.0461 4.57862 68.5545 5.18447 69.2417 5.2446Z" stroke="#16161E" stroke-width="0.894871" stroke-miterlimit="1.5" stroke-linecap="round" stroke-linejoin="round"/>
<path d="M59.002 44.2509L54.9142 51.3311M50.6311 58.7496L35.9124 84.2433" stroke="#16161E" stroke-width="0.892625" stroke-miterlimit="1.5" stroke-linecap="round" stroke-linejoin="round"/>
<path d="M69.1503 44.2824L73.2223 51.3354M77.5838 58.8897L92.2241 84.2474" stroke="#16161E" stroke-width="0.892352" stroke-miterlimit="1.5" stroke-linecap="round" stroke-linejoin="round"/>
<path d="M64.1023 25.3324V19.625" stroke="#16161E" stroke-width="0.895571" stroke-miterlimit="1.5" stroke-linecap="round" stroke-linejoin="round"/>
<path d="M61.4761 25.6758L59.9072 19.8207" stroke="#16161E" stroke-width="0.895721" stroke-miterlimit="1.5" stroke-linecap="round" stroke-linejoin="round"/>
<path d="M59.0307 26.6899L55.4399 20.4705" stroke="#16161E" stroke-width="0.893967" stroke-miterlimit="1.5" stroke-linecap="round" stroke-linejoin="round"/>
<path d="M56.9318 28.301L50.4097 21.7788" stroke="#16161E" stroke-width="0.89421" stroke-miterlimit="1.5" stroke-linecap="round" stroke-linejoin="round"/>
<path d="M55.0101 30.2197L44.5276 24.1676" stroke="#16161E" stroke-width="0.893727" stroke-miterlimit="1.5" stroke-linecap="round" stroke-linejoin="round"/>
<path d="M52.7933 32.4381L37.6433 28.3787" stroke="#16161E" stroke-width="0.893881" stroke-miterlimit="1.5" stroke-linecap="round" stroke-linejoin="round"/>
<path d="M49.7676 35.461L30.1213 35.461" stroke="#16161E" stroke-width="0.892635" stroke-miterlimit="1.5" stroke-linecap="round" stroke-linejoin="round"/>
<path d="M52.7683 38.4953L23.3582 46.3757" stroke="#16161E" stroke-width="0.896678" stroke-miterlimit="1.5" stroke-linecap="round" stroke-linejoin="round"/>
<path d="M54.9855 40.7146L19.8079 61.0244" stroke="#16161E" stroke-width="0.893287" stroke-miterlimit="1.5" stroke-linecap="round" stroke-linejoin="round"/>
<path d="M56.9083 42.6323L21.8569 77.6836" stroke="#16161E" stroke-width="0.897759" stroke-miterlimit="1.5" stroke-linecap="round" stroke-linejoin="round"/>
<path d="M61.4447 45.2732L59.8213 51.3319" stroke="#16161E" stroke-width="0.894035" stroke-miterlimit="1.5" stroke-linecap="round" stroke-linejoin="round"/>
<path d="M64.0696 45.6246L64.0696 51.332" stroke="#16161E" stroke-width="0.895571" stroke-miterlimit="1.5" stroke-linecap="round" stroke-linejoin="round"/>
<path d="M66.698 45.2891L68.3174 51.3329" stroke="#16161E" stroke-width="0.895823" stroke-miterlimit="1.5" stroke-linecap="round" stroke-linejoin="round"/>
<path d="M71.2541 42.6719L106.324 77.7416" stroke="#16161E" stroke-width="0.898464" stroke-miterlimit="1.5" stroke-linecap="round" stroke-linejoin="round"/>
<path d="M73.1817 40.7475L108.396 61.0783" stroke="#16161E" stroke-width="0.894257" stroke-miterlimit="1.5" stroke-linecap="round" stroke-linejoin="round"/>
<path d="M75.4027 38.5264L104.862 46.4201" stroke="#16161E" stroke-width="0.892198" stroke-miterlimit="1.5" stroke-linecap="round" stroke-linejoin="round"/>
<path d="M78.4351 35.4955L98.106 35.4955" stroke="#16161E" stroke-width="0.894069" stroke-miterlimit="1.5" stroke-linecap="round" stroke-linejoin="round"/>
<path d="M75.4263 32.4568L90.5811 28.3961" stroke="#16161E" stroke-width="0.895387" stroke-miterlimit="1.5" stroke-linecap="round" stroke-linejoin="round"/>
<path d="M73.2048 30.2316L83.6926 24.1764" stroke="#16161E" stroke-width="0.895133" stroke-miterlimit="1.5" stroke-linecap="round" stroke-linejoin="round"/>
<path d="M71.2779 28.3096L77.8032 21.7843" stroke="#16161E" stroke-width="0.895384" stroke-miterlimit="1.5" stroke-linecap="round" stroke-linejoin="round"/>
<path d="M69.1771 26.6931L72.7686 20.4725" stroke="#16161E" stroke-width="0.894803" stroke-miterlimit="1.5" stroke-linecap="round" stroke-linejoin="round"/>
<path d="M66.7294 25.6765L68.2983 19.8213" stroke="#16161E" stroke-width="0.893959" stroke-miterlimit="1.5" stroke-linecap="round" stroke-linejoin="round"/>
<path d="M64.1003 38.0153C65.5013 38.0153 66.637 36.8796 66.637 35.4786C66.637 34.0777 65.5013 32.942 64.1003 32.942C62.6994 32.942 61.5637 34.0777 61.5637 35.4786C61.5637 36.8796 62.6994 38.0153 64.1003 38.0153Z" stroke="#16161E" stroke-width="0.894597" stroke-miterlimit="1.5" stroke-linecap="round" stroke-linejoin="round"/>
<path d="M63.2033 25.3718C62.7741 30.2556 58.8784 34.1513 53.9946 34.5805" stroke="#16161E" stroke-width="0.895236" stroke-miterlimit="1.5" stroke-linecap="round" stroke-linejoin="round"/>
<path d="M74.2087 34.5805C69.3249 34.1513 65.4293 30.2556 65 25.3718" stroke="#16161E" stroke-width="0.895236" stroke-miterlimit="1.5" stroke-linecap="round" stroke-linejoin="round"/>
<path d="M65 45.5859C65.4293 40.7021 69.3249 36.8065 74.2087 36.3772" stroke="#16161E" stroke-width="0.895236" stroke-miterlimit="1.5" stroke-linecap="round" stroke-linejoin="round"/>
<path d="M53.9946 36.3772C58.8784 36.8065 62.7741 40.7021 63.2033 45.5859" stroke="#16161E" stroke-width="0.895236" stroke-miterlimit="1.5" stroke-linecap="round" stroke-linejoin="round"/>
<path d="M64.1013 45.6252C69.7051 45.6252 74.2479 41.0825 74.2479 35.4787C74.2479 29.875 69.7051 25.3322 64.1013 25.3322C58.4976 25.3322 53.9548 29.875 53.9548 35.4787C53.9548 41.0825 58.4976 45.6252 64.1013 45.6252Z" stroke="#16161E" stroke-width="0.895236" stroke-miterlimit="1.5" stroke-linecap="round" stroke-linejoin="round"/>
<path d="M71.2763 28.3038L78.4509 35.4783L71.2754 42.6538" stroke="#16161E" stroke-width="0.895571" stroke-miterlimit="1.5" stroke-linecap="round" stroke-linejoin="round"/>
<path d="M56.9268 42.6532L49.7522 35.4786L56.9262 28.3047" stroke="#16161E" stroke-width="0.895571" stroke-miterlimit="1.5" stroke-linecap="round" stroke-linejoin="round"/>
<path d="M64.0987 115.38C67.601 115.38 70.4401 112.541 70.4401 109.038C70.4401 105.536 67.601 102.697 64.0987 102.697C60.5965 102.697 57.7573 105.536 57.7573 109.038C57.7573 112.541 60.5965 115.38 64.0987 115.38Z" stroke="#16161E" stroke-width="0.895505" stroke-miterlimit="1.5" stroke-linecap="round" stroke-linejoin="round"/>
</g>
<defs>
<clipPath id="clip0_26_5">
<rect width="127.785" height="128" fill="white" transform="translate(0.214844)"/>
</clipPath>
</defs>
</svg>
