<svg width="262" height="37" viewBox="0 0 262 37" fill="none" xmlns="http://www.w3.org/2000/svg">
<g clip-path="url(#clip0_26_354)">
<path fill-rule="evenodd" clip-rule="evenodd" d="M21.9021 10.2011V37.0001L0 10.2011H21.9021Z" fill="#B0AFBA"/>
<path fill-rule="evenodd" clip-rule="evenodd" d="M28.8456 10.2011H33.8336C38.7037 10.2011 46.108 14.5247 46.108 23.3702C46.108 32.2157 38.6983 36.4536 33.8336 36.4536H28.8456V10.2011Z" fill="#B0AFBA"/>
<path fill-rule="evenodd" clip-rule="evenodd" d="M20.7501 4.66658C20.7501 2.07348 22.8235 6.10352e-05 25.3899 6.10352e-05C27.9562 6.10352e-05 30.0564 2.07348 30.0564 4.66658C30.0564 7.25969 27.983 9.30632 25.3899 9.30632C22.7967 9.30632 20.7501 7.22754 20.7501 4.66658Z" fill="#B0AFBA"/>
<path fill-rule="evenodd" clip-rule="evenodd" d="M74.4052 12.3066V10.8654H67.1134V12.3066H70.9763V14.8997C70.9763 15.3337 70.6334 16.0248 69.6797 16.0248C69.9369 14.6426 69.0743 13.9514 68.2974 14.2086C65.9937 14.9855 69.2457 18.2429 69.2457 18.2429L72.096 21.2378L73.5426 20.0592L70.2851 17.2035C71.4906 17.2035 72.7604 16.1963 72.7604 15.0712V12.3013H74.4052V12.3066Z" fill="#B0AFBA"/>
<path fill-rule="evenodd" clip-rule="evenodd" d="M78.6056 12.3066V10.8654H73.7944V12.3066H75.091V20.5789L76.8804 21.2378V12.3066H78.6056Z" fill="#B0AFBA"/>
<path fill-rule="evenodd" clip-rule="evenodd" d="M92.2623 12.3066V10.8654H82.8971V12.3066H87.4511V13.4317C85.1473 13.5175 83.5025 14.4711 83.5025 17.2946C83.5882 19.7216 85.0562 21.0985 87.7994 21.0985C90.5425 21.0985 91.314 19.1966 91.6569 18.1572L89.9638 17.3803C89.6156 18.5054 89.0959 19.4537 87.7994 19.4537C86.5028 19.5395 85.4902 18.9341 85.4902 17.2893C85.4902 16.1052 85.8974 15.5909 86.5885 15.3337C87.3707 15.0765 88.4905 15.0765 89.2674 15.1569V12.3013H92.2623V12.3066Z" fill="#B0AFBA"/>
<path fill-rule="evenodd" clip-rule="evenodd" d="M87.2797 21.5807L83.3364 24.4364L84.3705 25.6472L87.7994 22.7059L91.3193 25.6472L92.3534 24.4364L88.4048 21.5807H87.2797Z" fill="#B0AFBA"/>
<path fill-rule="evenodd" clip-rule="evenodd" d="M96.1306 12.3067V10.8655H94.6036V8.87776C94.6036 7.52227 94.5125 5.79175 91.4908 5.79175C89.0102 5.79175 88.3191 7.43655 88.3191 8.95812V9.74034L90.2211 10.4315V8.87776C90.2211 8.01518 90.4568 7.43655 91.4908 7.43655C92.4391 7.43655 92.7874 7.92945 92.7874 8.87776V10.8655H91.4908V12.3067H92.7017V20.5789L94.6036 21.2379V12.3067H96.1306Z" fill="#B0AFBA"/>
<path fill-rule="evenodd" clip-rule="evenodd" d="M103.444 17.809L102.581 16.7107C101.976 17.2893 101.199 17.7179 100.336 17.809C98.8093 17.8947 98.4611 16.7696 98.2896 16.1053C100.336 15.4998 100.861 14.0318 99.7309 12.3013H101.461V10.8601H95.6965V12.3013H97.7699C98.1182 12.4781 98.8093 13.0835 98.6325 13.9461C98.6325 14.723 96.9877 14.8944 96.3823 15.0712C96.2109 17.4607 97.1645 19.4538 100.074 19.3627C101.719 19.3627 102.753 18.4144 103.444 17.809Z" fill="#B0AFBA"/>
<path fill-rule="evenodd" clip-rule="evenodd" d="M105.667 12.3066V10.8654H100.942V12.3066H102.238V20.5789L104.028 21.2378V12.3066H105.667Z" fill="#B0AFBA"/>
<path fill-rule="evenodd" clip-rule="evenodd" d="M120.969 9.22065C118.981 7.69372 116.415 5.79175 114.084 5.79175C111.518 5.79175 110.393 7.17402 110.393 8.87776V10.8655H109.096V12.3067H110.393V20.5789L112.3 21.2379V12.3067H113.907V10.8655H112.3V8.87776C112.3 8.18662 112.814 7.43655 113.998 7.43655C115.809 7.43655 118.718 9.31173 119.849 10.4315L120.969 9.22065Z" fill="#B0AFBA"/>
<path fill-rule="evenodd" clip-rule="evenodd" d="M121.66 12.3066V10.8654H113.393V12.3066H118.204V13.0888C116.238 12.912 114.341 13.2603 114.341 15.4194C114.341 17.2946 115.986 17.6375 116.677 17.6375L118.29 17.7232C118.81 17.7232 119.244 17.9857 119.329 18.5912C119.42 19.6305 118.204 19.6305 117.513 19.6305C116.506 19.6305 115.123 19.1109 114.598 18.6769L113.65 20.0645C114.513 20.7557 116.072 21.1039 117.599 21.1039C119.244 21.1896 120.969 20.9271 121.06 18.5965C121.145 16.6356 119.329 16.2016 118.547 16.2016H117.192C115.895 16.1159 116.072 14.9051 116.677 14.6479C117.02 14.4765 117.856 14.4765 118.29 14.4765C119.067 14.5622 119.501 14.5622 120.02 14.6479V12.312H121.66V12.3066Z" fill="#B0AFBA"/>
<path fill-rule="evenodd" clip-rule="evenodd" d="M121.06 10.8654H128.003V12.3066H121.06V10.8654Z" fill="#B0AFBA"/>
<path fill-rule="evenodd" clip-rule="evenodd" d="M129.38 15.7623V14.2086H125.437L124.917 15.4194C125.265 15.8534 125.871 16.1106 125.957 16.716C126.128 17.3803 126.128 18.0715 125.351 18.1572C123.626 18.2429 123.021 15.5909 122.93 13.8657L121.494 14.214C121.579 16.1159 122.158 19.802 125.528 19.802C126.541 19.802 127.746 19.202 127.746 17.4661C127.746 17.1178 127.489 16.1963 127.055 15.7677H129.385L129.38 15.7623Z" fill="#B0AFBA"/>
<path fill-rule="evenodd" clip-rule="evenodd" d="M132.209 12.3066V10.8654H127.398V12.3066H128.694V20.5789L130.591 21.2378V12.3066H132.209Z" fill="#B0AFBA"/>
<path fill-rule="evenodd" clip-rule="evenodd" d="M124.226 21.8433L123.015 20.6646L121.831 21.7576L123.015 23.0541L124.226 21.8433Z" fill="#B0AFBA"/>
<path fill-rule="evenodd" clip-rule="evenodd" d="M136.5 12.3066V10.8654H131.775V12.3066H132.991V20.5789L134.888 21.2378V12.3066H136.5Z" fill="#B0AFBA"/>
<path fill-rule="evenodd" clip-rule="evenodd" d="M143.616 12.3066V10.8654H135.981V12.3066H140.246V13.346C138.29 13.2603 136.586 13.346 136.495 15.4194C136.495 17.1178 137.679 17.3803 139.067 17.6375C139.844 17.7232 141.028 17.7232 141.108 18.7626C141.108 19.802 140.326 20.236 139.067 20.1502C138.89 18.9394 138.027 18.0768 137.02 18.5912C135.981 19.1109 136.329 20.4021 136.849 20.7557C137.106 21.0128 138.199 21.3289 138.199 21.3289L139.758 23.7506L141.108 22.888L139.758 21.3343C141.108 21.2486 143.01 20.761 142.924 18.5965C142.924 16.6356 141.542 16.3784 139.988 16.2016C139.238 16.1159 137.685 16.1159 138.461 14.8194C138.719 14.4765 139.897 14.5622 140.331 14.5622C141.113 14.6479 141.542 14.5622 142.147 14.6479V12.312H143.616V12.3066Z" fill="#B0AFBA"/>
<path fill-rule="evenodd" clip-rule="evenodd" d="M143.101 10.8654H148.694V12.3066H143.101V10.8654Z" fill="#B0AFBA"/>
<path fill-rule="evenodd" clip-rule="evenodd" d="M150.302 16.3678V14.723H144.885C143.878 14.723 143.101 15.0713 143.358 16.191C143.358 16.191 143.706 16.7696 144.14 17.284C144.628 17.8037 145.148 18.3234 145.148 18.3234C146.53 18.7573 146.873 17.4608 146.792 16.3625H150.307L150.302 16.3678Z" fill="#B0AFBA"/>
<path fill-rule="evenodd" clip-rule="evenodd" d="M152.986 12.3066V10.8654H148.169V12.3066H149.439V20.5789L151.341 21.2378V12.3066H152.986Z" fill="#B0AFBA"/>
<path fill-rule="evenodd" clip-rule="evenodd" d="M165.175 17.0321V15.5909H161.66C161.917 14.814 161.832 13.7746 161.832 12.3066H164.05V10.8654H156.415V12.3066H160.015V14.8997C160.015 15.3337 159.758 16.0248 158.804 16.0248C159.062 14.6426 158.199 13.9514 157.363 14.2086C155.033 14.9855 158.285 18.2429 158.285 18.2429L161.231 21.2378L162.582 20.0592L159.238 17.0321H165.18H165.175Z" fill="#B0AFBA"/>
<path fill-rule="evenodd" clip-rule="evenodd" d="M168.17 12.3066V10.8654H163.444V12.3066H164.655V20.5789L166.557 21.2378V12.3066H168.17Z" fill="#B0AFBA"/>
<path fill-rule="evenodd" clip-rule="evenodd" d="M166.964 7.92409L165.518 6.39716L164.05 7.83837L165.518 9.39209L166.964 7.92409Z" fill="#B0AFBA"/>
<path fill-rule="evenodd" clip-rule="evenodd" d="M176.501 17.0321V15.5909H173.072C173.329 14.814 173.158 13.7746 173.158 12.3066H175.402V10.8654H167.736V12.3066H171.368V14.8997C171.368 15.3337 171.106 16.0248 170.243 16.0248C170.414 14.6426 169.638 13.9514 168.775 14.2086C166.385 14.9855 169.638 18.2429 169.729 18.2429L172.552 21.2378L174.02 20.0592L170.591 17.0321H176.501Z" fill="#B0AFBA"/>
<path fill-rule="evenodd" clip-rule="evenodd" d="M185.518 12.3066V10.8654H180.707V12.3066H182.003V20.5789L183.819 21.2378V12.3066H185.518Z" fill="#B0AFBA"/>
<path fill-rule="evenodd" clip-rule="evenodd" d="M189.724 12.3066V10.8654H185.003V12.3066H186.209V20.5789L188.111 21.2378V12.3066H189.724Z" fill="#B0AFBA"/>
<path fill-rule="evenodd" clip-rule="evenodd" d="M189.236 10.8654H194.803V12.3066H189.236V10.8654Z" fill="#B0AFBA"/>
<path fill-rule="evenodd" clip-rule="evenodd" d="M196.442 16.3678V14.723H191.025C189.981 14.723 189.236 15.0713 189.466 16.191C189.466 16.191 189.815 16.7696 190.249 17.284C190.763 17.8037 191.283 18.3234 191.283 18.3234C192.665 18.7573 193.013 17.4608 192.927 16.3625H196.447L196.442 16.3678Z" fill="#B0AFBA"/>
<path fill-rule="evenodd" clip-rule="evenodd" d="M199.094 12.3066V10.8654H194.277V12.3066H195.574V20.5789L197.39 21.2378V12.3066H199.094Z" fill="#B0AFBA"/>
<path fill-rule="evenodd" clip-rule="evenodd" d="M84.5419 17.809V15.5052L82.4685 13.4318V15.1623L83.9419 16.6303C83.5936 16.8607 83.2454 17.0375 82.5596 17.0375H82.4685V18.5965C83.1596 18.5965 83.9419 18.1626 84.5419 17.8143V17.809Z" fill="#B0AFBA"/>
<path fill-rule="evenodd" clip-rule="evenodd" d="M82.4685 12.3067H83.3364V10.8655H82.4685V12.3067Z" fill="#B0AFBA"/>
<path fill-rule="evenodd" clip-rule="evenodd" d="M82.4685 13.4264L81.3434 12.3013H82.4685V10.8601H78.0859V12.3013H79.0396V15.6713C79.0396 17.6268 80.5076 18.5001 82.2113 18.5859H82.4685V17.0268C81.5202 17.0268 80.9416 16.5339 80.9416 15.757V13.7693L82.4685 15.1516V13.4211V13.4264Z" fill="#B0AFBA"/>
<path fill-rule="evenodd" clip-rule="evenodd" d="M183.385 17.809L182.346 16.6249C181.569 17.375 180.878 17.7179 179.694 17.809C179.003 17.8947 178.483 17.6322 178.049 17.375V19.1913C178.483 19.277 178.922 19.3627 179.351 19.3627C181.483 19.3627 181.483 19.1055 183.38 17.809H183.385Z" fill="#B0AFBA"/>
<path fill-rule="evenodd" clip-rule="evenodd" d="M178.055 15.8481C179.356 15.2427 180.535 14.2033 180.535 12.821C180.535 11.4388 179.79 10.5172 178.055 10.4315V11.8995C178.403 11.9852 178.837 12.3013 178.837 12.6496C178.837 13.0836 178.58 13.5175 178.146 13.8604L178.055 13.7747V15.8535V15.8481Z" fill="#B0AFBA"/>
<path fill-rule="evenodd" clip-rule="evenodd" d="M178.055 17.375C177.54 17.0321 177.363 16.5392 177.363 16.191C177.54 16.1053 177.792 16.0195 178.055 15.8481V13.7693C177.626 13.5122 177.363 13.1639 177.363 12.6442C177.363 12.2424 177.712 11.8941 178.055 11.8941V10.4261C176.587 10.4261 175.579 11.203 175.579 12.6442C175.579 13.5979 176.244 14.289 177.187 14.723C176.672 14.8944 175.917 15.4141 175.402 15.4141C175.402 16.9411 176.238 18.6716 178.049 19.1913V17.375H178.055Z" fill="#B0AFBA"/>
<path fill-rule="evenodd" clip-rule="evenodd" d="M67.108 36.9143H68.8975V30.0297L72.4121 36.9143H74.6623V27.7259H72.9318V34.5783H72.8461L69.4118 27.7259H67.108V36.9143Z" fill="#B0AFBA"/>
<path fill-rule="evenodd" clip-rule="evenodd" d="M87.1939 36.9143H89.0959V29.1617H91.6568V27.7259H84.6329V29.1617H87.1939V36.9143Z" fill="#B0AFBA"/>
<path fill-rule="evenodd" clip-rule="evenodd" d="M92.4391 27.7259H94.3464V36.9143H92.4391V27.7259Z" fill="#B0AFBA"/>
<path fill-rule="evenodd" clip-rule="evenodd" d="M106.01 36.9143H107.741V30.0297L111.261 36.9143H113.473V27.7259H111.775V34.5783H111.694L108.26 27.7259H106.01V36.9143Z" fill="#B0AFBA"/>
<path fill-rule="evenodd" clip-rule="evenodd" d="M124.397 36.9143H129.819V35.4463H126.299V27.7259H124.397V36.9143Z" fill="#B0AFBA"/>
<path fill-rule="evenodd" clip-rule="evenodd" d="M134.111 27.7259H135.981V36.9143H134.111V27.7259Z" fill="#B0AFBA"/>
<path fill-rule="evenodd" clip-rule="evenodd" d="M137.684 36.9143H139.501V30.0297L143.01 36.9143H145.233V27.7259H143.449V34.5783L139.988 27.7259H137.684V36.9143Z" fill="#B0AFBA"/>
<path fill-rule="evenodd" clip-rule="evenodd" d="M152.032 27.892C151.427 27.6349 150.65 27.5491 149.868 27.5491C148.255 27.5491 146.696 28.326 146.696 30.3726C146.696 33.3997 150.645 32.6228 150.645 34.4069C150.645 35.1838 149.691 35.6124 149 35.6124C148.309 35.6124 147.644 35.3552 146.953 35.0124L146.787 36.6518C147.735 36.9143 148.169 37 149.177 37C150.993 37 152.632 36.3089 152.632 34.2301C152.632 31.1495 148.598 31.8406 148.598 30.2815C148.598 29.2422 149.348 28.985 150.039 28.985C150.645 28.985 151.336 29.1564 151.855 29.3279L152.027 27.8867L152.032 27.892Z" fill="#B0AFBA"/>
<path fill-rule="evenodd" clip-rule="evenodd" d="M155.718 36.9143H157.54V29.1617H160.192V27.7259H153.072V29.1617H155.718V36.9143Z" fill="#B0AFBA"/>
<path fill-rule="evenodd" clip-rule="evenodd" d="M160.969 27.7259H162.753V36.9143H160.969V27.7259Z" fill="#B0AFBA"/>
<path fill-rule="evenodd" clip-rule="evenodd" d="M166.294 36.9143H168.17V29.1617H170.768V27.7259H163.707V29.1617H166.294V36.9143Z" fill="#B0AFBA"/>
<path fill-rule="evenodd" clip-rule="evenodd" d="M171.598 33.539C171.598 36.0517 173.072 37 175.408 37C177.744 37 179.185 36.0517 179.185 33.539V27.7206H177.283V32.9657C177.283 34.5784 176.758 35.6124 175.408 35.6124C174.058 35.6124 173.506 34.573 173.506 32.9657V27.7206H171.598V33.539Z" fill="#B0AFBA"/>
<path fill-rule="evenodd" clip-rule="evenodd" d="M182.523 36.9143H184.425V29.1617H186.991V27.7259H179.956V29.1617H182.523V36.9143Z" fill="#B0AFBA"/>
<path fill-rule="evenodd" clip-rule="evenodd" d="M187.939 36.9143H193.442V35.4463H189.815V32.88H193.099V31.412H189.815V29.1617H193.356V27.7259H187.939V36.9143Z" fill="#B0AFBA"/>
<path fill-rule="evenodd" clip-rule="evenodd" d="M208.459 36.9143H210.275V32.88H213.361V31.412H210.275V29.1617H213.528V27.7259H208.459V36.9143Z" fill="#B0AFBA"/>
<path fill-rule="evenodd" clip-rule="evenodd" d="M227.532 36.9143H232.954V35.4463H229.349V32.88H232.606V31.412H229.349V29.1617H232.954V27.7259H227.532V36.9143Z" fill="#B0AFBA"/>
<path fill-rule="evenodd" clip-rule="evenodd" d="M239.641 27.892C239.062 27.6349 238.28 27.5491 237.503 27.5491C235.864 27.5491 234.337 28.326 234.337 30.3726C234.337 33.3997 238.285 32.6228 238.285 34.4069C238.285 35.1838 237.423 35.6124 236.64 35.6124C235.949 35.6124 235.264 35.3552 234.567 35.0124L234.422 36.6518C235.344 36.9143 235.773 37 236.812 37C238.628 37 240.246 36.3089 240.246 34.2301C240.246 31.1495 236.207 31.8406 236.207 30.2815C236.207 29.2422 236.989 28.985 237.674 28.985C238.28 28.985 238.976 29.1564 239.464 29.3279L239.641 27.8867V27.892Z" fill="#B0AFBA"/>
<path fill-rule="evenodd" clip-rule="evenodd" d="M241.537 27.7259H243.359V36.9143H241.537V27.7259Z" fill="#B0AFBA"/>
<path fill-rule="evenodd" clip-rule="evenodd" d="M252.462 27.892C251.685 27.7206 250.817 27.5491 249.783 27.5491C246.702 27.5491 244.714 29.3332 244.714 32.446C244.714 35.5588 246.788 37 249.783 37C250.736 37 251.771 36.8232 252.692 36.5661V31.5835H249.001V33.0515H250.994V35.441C250.645 35.5267 250.303 35.6124 249.783 35.6124C247.827 35.6124 246.702 34.1444 246.702 32.355C246.702 30.453 247.827 28.985 249.96 28.985C250.742 28.985 251.69 29.1564 252.381 29.5047L252.467 27.8867L252.462 27.892Z" fill="#B0AFBA"/>
<path fill-rule="evenodd" clip-rule="evenodd" d="M254.251 36.9143H256.067V30.0297L259.577 36.9143H261.8V27.7259H260.096V34.5783H260.011L256.582 27.7259H254.251V36.9143Z" fill="#B0AFBA"/>
<path fill-rule="evenodd" clip-rule="evenodd" d="M79.9932 34.7497H81.863L82.6452 36.9142H84.7133L81.1129 27.7258H79.9932V29.5099L81.3433 33.3139H79.9932V34.7497Z" fill="#B0AFBA"/>
<path fill-rule="evenodd" clip-rule="evenodd" d="M75.4392 36.9143H77.3144L78.177 34.7498H79.9932V33.3139H78.6913L79.9932 29.51V27.7259H79.0396L75.4392 36.9143Z" fill="#B0AFBA"/>
<path fill-rule="evenodd" clip-rule="evenodd" d="M100.16 37C103.106 37 104.714 35.0123 104.714 32.2745C104.714 29.5368 103.101 27.5491 100.16 27.5491V28.9903C102.062 28.9903 102.753 30.6351 102.753 32.2745C102.753 33.914 102.056 35.6124 100.16 35.6124V37Z" fill="#B0AFBA"/>
<path fill-rule="evenodd" clip-rule="evenodd" d="M95.6965 32.2802C95.6965 35.0983 97.2503 37.0057 100.159 37.0057V35.618C98.3754 35.618 97.5931 33.8929 97.5931 32.2802C97.5931 30.6675 98.3754 28.996 100.159 28.996V27.5547C97.336 27.5547 95.6965 29.4299 95.6965 32.2802Z" fill="#B0AFBA"/>
<path fill-rule="evenodd" clip-rule="evenodd" d="M120.192 33.3139H118.895V34.7497H120.712L121.488 36.9142H123.535L119.929 27.7258H118.895V29.5099L120.192 33.3139Z" fill="#B0AFBA"/>
<path fill-rule="evenodd" clip-rule="evenodd" d="M118.895 33.3139H117.513L118.81 29.51H118.895V27.7259H117.856L114.255 36.9143H116.238L117.02 34.7498H118.895V33.3139Z" fill="#B0AFBA"/>
<path fill-rule="evenodd" clip-rule="evenodd" d="M202.635 37C205.55 37 207.104 35.0123 207.104 32.2745C207.104 29.5368 205.459 27.5491 202.635 27.5491V28.9903C204.425 28.9903 205.207 30.6351 205.207 32.2745C205.207 33.914 204.511 35.6124 202.635 35.6124V37Z" fill="#B0AFBA"/>
<path fill-rule="evenodd" clip-rule="evenodd" d="M198.172 32.2802C198.172 35.0983 199.694 37.0057 202.635 37.0057V35.618C200.733 35.618 200.048 33.8929 200.048 32.2802C200.048 30.6675 200.83 28.996 202.635 28.996V27.5547C199.699 27.5547 198.172 29.4299 198.172 32.2802Z" fill="#B0AFBA"/>
<path fill-rule="evenodd" clip-rule="evenodd" d="M222.202 36.8286C224.447 36.4857 226.15 35.3606 226.15 32.2799C226.15 29.1993 224.447 28.0688 222.202 27.8116V29.3332C223.321 29.6761 224.189 30.7155 224.189 32.2746C224.189 33.8337 223.321 34.8355 222.202 35.2695V36.8232V36.8286Z" fill="#B0AFBA"/>
<path fill-rule="evenodd" clip-rule="evenodd" d="M218.344 36.9143H220.852C221.339 36.9143 221.773 36.8286 222.202 36.8286V35.2748C221.853 35.3606 221.51 35.4517 221.162 35.4517H220.15V29.1671H221.162C221.51 29.1671 221.853 29.1671 222.202 29.3386V27.817C221.768 27.7313 221.339 27.7313 220.852 27.7313H218.344V36.9197V36.9143Z" fill="#B0AFBA"/>
</g>
<defs>
<clipPath id="clip0_26_354">
<rect width="261.69" height="37" fill="white"/>
</clipPath>
</defs>
</svg>
